<mxfile host="app.diagrams.net" agent="Mozilla/5.0 (Windows NT 10.0; Win64; x64) AppleWebKit/537.36 (KHTML, like Gecko) Chrome/129.0.0.0 Safari/537.36" version="24.7.16">
  <diagram name="第 1 页" id="SoIzGKvfXBfCtIXZMCsS">
    <mxGraphModel dx="6316" dy="2808" grid="0" gridSize="10" guides="1" tooltips="1" connect="1" arrows="1" fold="1" page="0" pageScale="1" pageWidth="827" pageHeight="1169" math="0" shadow="0">
      <root>
        <mxCell id="0" />
        <mxCell id="1" parent="0" />
        <mxCell id="R5nIYqu6_4dfiVNAs0mq-330" value="" style="rounded=1;whiteSpace=wrap;html=1;fillColor=#d5e8d4;strokeColor=#82b366;" vertex="1" parent="1">
          <mxGeometry x="-437" y="4106" width="259" height="394" as="geometry" />
        </mxCell>
        <mxCell id="R5nIYqu6_4dfiVNAs0mq-318" value="" style="rounded=1;whiteSpace=wrap;html=1;fillColor=#d5e8d4;strokeColor=#82b366;" vertex="1" parent="1">
          <mxGeometry x="-659.5" y="3549" width="259" height="432" as="geometry" />
        </mxCell>
        <mxCell id="R5nIYqu6_4dfiVNAs0mq-306" value="" style="rounded=1;whiteSpace=wrap;html=1;fillColor=#d5e8d4;strokeColor=#82b366;" vertex="1" parent="1">
          <mxGeometry x="-885" y="3000" width="259" height="432" as="geometry" />
        </mxCell>
        <mxCell id="R5nIYqu6_4dfiVNAs0mq-289" value="" style="rounded=1;whiteSpace=wrap;html=1;fillColor=#d5e8d4;strokeColor=#82b366;" vertex="1" parent="1">
          <mxGeometry x="-1092.5" y="2451" width="259" height="432" as="geometry" />
        </mxCell>
        <mxCell id="R5nIYqu6_4dfiVNAs0mq-373" value="" style="rounded=1;whiteSpace=wrap;html=1;fillColor=#d5e8d4;strokeColor=#82b366;" vertex="1" parent="1">
          <mxGeometry x="1254" y="2503" width="259" height="337" as="geometry" />
        </mxCell>
        <mxCell id="R5nIYqu6_4dfiVNAs0mq-367" value="" style="rounded=1;whiteSpace=wrap;html=1;fillColor=#d5e8d4;strokeColor=#82b366;" vertex="1" parent="1">
          <mxGeometry x="1034" y="2996" width="259" height="394" as="geometry" />
        </mxCell>
        <mxCell id="R5nIYqu6_4dfiVNAs0mq-361" value="" style="rounded=1;whiteSpace=wrap;html=1;fillColor=#d5e8d4;strokeColor=#82b366;" vertex="1" parent="1">
          <mxGeometry x="820" y="3549" width="259" height="394" as="geometry" />
        </mxCell>
        <mxCell id="R5nIYqu6_4dfiVNAs0mq-349" value="" style="rounded=1;whiteSpace=wrap;html=1;fillColor=#d5e8d4;strokeColor=#82b366;" vertex="1" parent="1">
          <mxGeometry x="614" y="4106" width="259" height="394" as="geometry" />
        </mxCell>
        <mxCell id="R5nIYqu6_4dfiVNAs0mq-342" value="" style="rounded=1;whiteSpace=wrap;html=1;fillColor=#d0cee2;strokeColor=#56517e;" vertex="1" parent="1">
          <mxGeometry x="-17" y="4580" width="471" height="168" as="geometry" />
        </mxCell>
        <mxCell id="R5nIYqu6_4dfiVNAs0mq-398" value="" style="rounded=1;whiteSpace=wrap;html=1;fillColor=#d0cee2;strokeColor=#56517e;" vertex="1" parent="1">
          <mxGeometry x="1298" y="2222.25" width="171" height="235" as="geometry" />
        </mxCell>
        <mxCell id="R5nIYqu6_4dfiVNAs0mq-280" value="" style="rounded=1;whiteSpace=wrap;html=1;fillStyle=auto;fillColor=#d5e8d4;strokeColor=#82b366;" vertex="1" parent="1">
          <mxGeometry x="-11" y="656.3599999999999" width="119" height="205.38" as="geometry" />
        </mxCell>
        <mxCell id="R5nIYqu6_4dfiVNAs0mq-278" value="" style="rounded=1;whiteSpace=wrap;html=1;fillStyle=auto;fillColor=#dae8fc;strokeColor=#6c8ebf;" vertex="1" parent="1">
          <mxGeometry x="125" y="523.4300000000001" width="265" height="484" as="geometry" />
        </mxCell>
        <mxCell id="R5nIYqu6_4dfiVNAs0mq-1" value="&lt;font color=&quot;#ff0000&quot; style=&quot;font-size: 29px;&quot;&gt;&lt;b style=&quot;font-size: 29px;&quot;&gt;JH_NVS&lt;/b&gt;&lt;/font&gt;" style="text;html=1;align=center;verticalAlign=middle;resizable=0;points=[];autosize=1;strokeColor=none;fillColor=none;fontSize=29;" vertex="1" parent="1">
          <mxGeometry x="96" y="1984" width="131" height="47" as="geometry" />
        </mxCell>
        <mxCell id="R5nIYqu6_4dfiVNAs0mq-137" value="" style="rounded=1;whiteSpace=wrap;html=1;fillStyle=auto;fillColor=#dae8fc;strokeColor=#6c8ebf;" vertex="1" parent="1">
          <mxGeometry x="-1350" y="626.9999999999999" width="277" height="484" as="geometry" />
        </mxCell>
        <mxCell id="R5nIYqu6_4dfiVNAs0mq-138" value="" style="rounded=1;whiteSpace=wrap;html=1;fillColor=#d5e8d4;strokeColor=#82b366;" vertex="1" parent="1">
          <mxGeometry x="-1289.25" y="654.6199999999999" width="156" height="92" as="geometry" />
        </mxCell>
        <mxCell id="R5nIYqu6_4dfiVNAs0mq-139" value="Cross-Attention(self)" style="rounded=1;whiteSpace=wrap;html=1;" vertex="1" parent="1">
          <mxGeometry x="-1284.25" y="709.6199999999999" width="145" height="24" as="geometry" />
        </mxCell>
        <mxCell id="R5nIYqu6_4dfiVNAs0mq-140" style="edgeStyle=none;curved=1;rounded=0;orthogonalLoop=1;jettySize=auto;html=1;exitX=0.5;exitY=1;exitDx=0;exitDy=0;entryX=0.5;entryY=0;entryDx=0;entryDy=0;fontSize=12;startSize=8;endSize=8;" edge="1" parent="1" source="R5nIYqu6_4dfiVNAs0mq-141" target="R5nIYqu6_4dfiVNAs0mq-139">
          <mxGeometry relative="1" as="geometry" />
        </mxCell>
        <mxCell id="R5nIYqu6_4dfiVNAs0mq-141" value="LN(or adaln)" style="rounded=1;whiteSpace=wrap;html=1;" vertex="1" parent="1">
          <mxGeometry x="-1253.25" y="665.6199999999999" width="84" height="24" as="geometry" />
        </mxCell>
        <mxCell id="R5nIYqu6_4dfiVNAs0mq-142" value="" style="verticalLabelPosition=bottom;verticalAlign=top;html=1;shape=mxgraph.flowchart.summing_function;" vertex="1" parent="1">
          <mxGeometry x="-1218.75" y="761.6199999999999" width="15" height="15" as="geometry" />
        </mxCell>
        <mxCell id="R5nIYqu6_4dfiVNAs0mq-143" value="&lt;b style=&quot;&quot;&gt;&lt;font color=&quot;#ff0000&quot;&gt;MCM&amp;nbsp; &lt;/font&gt;(Motion Construct Module)&lt;/b&gt;" style="text;html=1;align=center;verticalAlign=middle;resizable=0;points=[];autosize=1;strokeColor=none;fillColor=none;fontSize=16;" vertex="1" parent="1">
          <mxGeometry x="-1243.25" y="377" width="269" height="31" as="geometry" />
        </mxCell>
        <mxCell id="R5nIYqu6_4dfiVNAs0mq-144" style="edgeStyle=none;curved=1;rounded=0;orthogonalLoop=1;jettySize=auto;html=1;exitX=0.5;exitY=1;exitDx=0;exitDy=0;entryX=0.5;entryY=0;entryDx=0;entryDy=0;fontSize=12;startSize=8;endSize=8;" edge="1" parent="1" source="R5nIYqu6_4dfiVNAs0mq-145" target="R5nIYqu6_4dfiVNAs0mq-150">
          <mxGeometry relative="1" as="geometry" />
        </mxCell>
        <mxCell id="R5nIYqu6_4dfiVNAs0mq-145" value="GN" style="rounded=1;whiteSpace=wrap;html=1;" vertex="1" parent="1">
          <mxGeometry x="-1251.37" y="518.6199999999999" width="78.25" height="24" as="geometry" />
        </mxCell>
        <mxCell id="R5nIYqu6_4dfiVNAs0mq-146" value="Video_frames" style="text;html=1;align=center;verticalAlign=middle;resizable=0;points=[];autosize=1;strokeColor=none;fillColor=none;" vertex="1" parent="1">
          <mxGeometry x="-1255.75" y="439" width="92" height="26" as="geometry" />
        </mxCell>
        <mxCell id="R5nIYqu6_4dfiVNAs0mq-147" style="edgeStyle=none;curved=1;rounded=0;orthogonalLoop=1;jettySize=auto;html=1;entryX=0.5;entryY=0;entryDx=0;entryDy=0;fontSize=12;startSize=8;endSize=8;" edge="1" parent="1" target="R5nIYqu6_4dfiVNAs0mq-145">
          <mxGeometry relative="1" as="geometry">
            <mxPoint x="-1212.25" y="470" as="sourcePoint" />
          </mxGeometry>
        </mxCell>
        <mxCell id="R5nIYqu6_4dfiVNAs0mq-148" value="&lt;font color=&quot;#ff0000&quot;&gt;b,c,f,h,w -&amp;gt; (b f) c h w&lt;/font&gt;" style="text;html=1;align=center;verticalAlign=middle;resizable=0;points=[];autosize=1;strokeColor=none;fillColor=none;" vertex="1" parent="1">
          <mxGeometry x="-1157.25" y="439" width="133" height="26" as="geometry" />
        </mxCell>
        <mxCell id="R5nIYqu6_4dfiVNAs0mq-149" style="edgeStyle=none;curved=1;rounded=0;orthogonalLoop=1;jettySize=auto;html=1;exitX=0.5;exitY=1;exitDx=0;exitDy=0;entryX=0.5;entryY=0;entryDx=0;entryDy=0;fontSize=12;startSize=8;endSize=8;" edge="1" parent="1" source="R5nIYqu6_4dfiVNAs0mq-150" target="R5nIYqu6_4dfiVNAs0mq-141">
          <mxGeometry relative="1" as="geometry" />
        </mxCell>
        <mxCell id="R5nIYqu6_4dfiVNAs0mq-150" value="Project_In" style="rounded=1;whiteSpace=wrap;html=1;" vertex="1" parent="1">
          <mxGeometry x="-1264.49" y="565.6199999999999" width="104.5" height="24" as="geometry" />
        </mxCell>
        <mxCell id="R5nIYqu6_4dfiVNAs0mq-151" style="edgeStyle=none;curved=1;rounded=0;orthogonalLoop=1;jettySize=auto;html=1;exitX=0.5;exitY=1;exitDx=0;exitDy=0;entryX=0.5;entryY=0;entryDx=0;entryDy=0;entryPerimeter=0;fontSize=12;startSize=8;endSize=8;" edge="1" parent="1" source="R5nIYqu6_4dfiVNAs0mq-139" target="R5nIYqu6_4dfiVNAs0mq-142">
          <mxGeometry relative="1" as="geometry" />
        </mxCell>
        <mxCell id="R5nIYqu6_4dfiVNAs0mq-152" style="edgeStyle=none;curved=0;rounded=1;orthogonalLoop=1;jettySize=auto;html=1;fontSize=12;startSize=8;endSize=8;entryX=1;entryY=0.5;entryDx=0;entryDy=0;entryPerimeter=0;" edge="1" parent="1" target="R5nIYqu6_4dfiVNAs0mq-142">
          <mxGeometry relative="1" as="geometry">
            <mxPoint x="-1210.75" y="637.6199999999999" as="sourcePoint" />
            <mxPoint x="-1106.75" y="778.6199999999999" as="targetPoint" />
            <Array as="points">
              <mxPoint x="-1120.25" y="636" />
              <mxPoint x="-1118.25" y="768" />
            </Array>
          </mxGeometry>
        </mxCell>
        <mxCell id="R5nIYqu6_4dfiVNAs0mq-153" value="" style="rounded=1;whiteSpace=wrap;html=1;fillColor=#d5e8d4;strokeColor=#82b366;" vertex="1" parent="1">
          <mxGeometry x="-1289.25" y="815.6199999999999" width="156" height="92" as="geometry" />
        </mxCell>
        <mxCell id="R5nIYqu6_4dfiVNAs0mq-154" value="Cross-Attention(&lt;font color=&quot;#ff0000&quot;&gt;cross&lt;/font&gt;)" style="rounded=1;whiteSpace=wrap;html=1;" vertex="1" parent="1">
          <mxGeometry x="-1283.25" y="870.6199999999999" width="144" height="24" as="geometry" />
        </mxCell>
        <mxCell id="R5nIYqu6_4dfiVNAs0mq-155" style="edgeStyle=none;curved=1;rounded=0;orthogonalLoop=1;jettySize=auto;html=1;exitX=0.5;exitY=1;exitDx=0;exitDy=0;entryX=0.5;entryY=0;entryDx=0;entryDy=0;fontSize=12;startSize=8;endSize=8;" edge="1" parent="1" source="R5nIYqu6_4dfiVNAs0mq-156" target="R5nIYqu6_4dfiVNAs0mq-154">
          <mxGeometry relative="1" as="geometry" />
        </mxCell>
        <mxCell id="R5nIYqu6_4dfiVNAs0mq-156" value="LN(or adaln)" style="rounded=1;whiteSpace=wrap;html=1;" vertex="1" parent="1">
          <mxGeometry x="-1253.25" y="826.6199999999999" width="84" height="24" as="geometry" />
        </mxCell>
        <mxCell id="R5nIYqu6_4dfiVNAs0mq-157" value="" style="verticalLabelPosition=bottom;verticalAlign=top;html=1;shape=mxgraph.flowchart.summing_function;" vertex="1" parent="1">
          <mxGeometry x="-1218.75" y="922.6199999999999" width="15" height="15" as="geometry" />
        </mxCell>
        <mxCell id="R5nIYqu6_4dfiVNAs0mq-158" style="edgeStyle=none;curved=1;rounded=0;orthogonalLoop=1;jettySize=auto;html=1;exitX=0.5;exitY=1;exitDx=0;exitDy=0;entryX=0.5;entryY=0;entryDx=0;entryDy=0;entryPerimeter=0;fontSize=12;startSize=8;endSize=8;" edge="1" parent="1" source="R5nIYqu6_4dfiVNAs0mq-154" target="R5nIYqu6_4dfiVNAs0mq-157">
          <mxGeometry relative="1" as="geometry" />
        </mxCell>
        <mxCell id="R5nIYqu6_4dfiVNAs0mq-160" value="" style="rounded=1;whiteSpace=wrap;html=1;fillColor=#d5e8d4;strokeColor=#82b366;" vertex="1" parent="1">
          <mxGeometry x="-1289.25" y="972.6199999999999" width="156" height="92" as="geometry" />
        </mxCell>
        <mxCell id="R5nIYqu6_4dfiVNAs0mq-161" value="FeedForward" style="rounded=1;whiteSpace=wrap;html=1;" vertex="1" parent="1">
          <mxGeometry x="-1268.25" y="1027.62" width="113.5" height="24" as="geometry" />
        </mxCell>
        <mxCell id="R5nIYqu6_4dfiVNAs0mq-162" style="edgeStyle=none;curved=1;rounded=0;orthogonalLoop=1;jettySize=auto;html=1;exitX=0.5;exitY=1;exitDx=0;exitDy=0;entryX=0.5;entryY=0;entryDx=0;entryDy=0;fontSize=12;startSize=8;endSize=8;" edge="1" parent="1" source="R5nIYqu6_4dfiVNAs0mq-163" target="R5nIYqu6_4dfiVNAs0mq-161">
          <mxGeometry relative="1" as="geometry" />
        </mxCell>
        <mxCell id="R5nIYqu6_4dfiVNAs0mq-163" value="LN" style="rounded=1;whiteSpace=wrap;html=1;" vertex="1" parent="1">
          <mxGeometry x="-1253.25" y="983.6199999999999" width="84" height="24" as="geometry" />
        </mxCell>
        <mxCell id="R5nIYqu6_4dfiVNAs0mq-164" style="edgeStyle=none;curved=1;rounded=0;orthogonalLoop=1;jettySize=auto;html=1;exitX=0.5;exitY=1;exitDx=0;exitDy=0;exitPerimeter=0;entryX=0.5;entryY=0;entryDx=0;entryDy=0;fontSize=12;startSize=8;endSize=8;" edge="1" parent="1" source="R5nIYqu6_4dfiVNAs0mq-165" target="R5nIYqu6_4dfiVNAs0mq-168">
          <mxGeometry relative="1" as="geometry">
            <mxPoint x="-1211.2499999999995" y="1134.62" as="targetPoint" />
          </mxGeometry>
        </mxCell>
        <mxCell id="R5nIYqu6_4dfiVNAs0mq-165" value="" style="verticalLabelPosition=bottom;verticalAlign=top;html=1;shape=mxgraph.flowchart.summing_function;" vertex="1" parent="1">
          <mxGeometry x="-1218.75" y="1079.62" width="15" height="15" as="geometry" />
        </mxCell>
        <mxCell id="R5nIYqu6_4dfiVNAs0mq-166" style="edgeStyle=none;curved=1;rounded=0;orthogonalLoop=1;jettySize=auto;html=1;exitX=0.5;exitY=1;exitDx=0;exitDy=0;entryX=0.5;entryY=0;entryDx=0;entryDy=0;entryPerimeter=0;fontSize=12;startSize=8;endSize=8;" edge="1" parent="1" source="R5nIYqu6_4dfiVNAs0mq-161" target="R5nIYqu6_4dfiVNAs0mq-165">
          <mxGeometry relative="1" as="geometry" />
        </mxCell>
        <mxCell id="R5nIYqu6_4dfiVNAs0mq-168" value="Project_out" style="rounded=1;whiteSpace=wrap;html=1;" vertex="1" parent="1">
          <mxGeometry x="-1263.5" y="1135.62" width="104.5" height="24" as="geometry" />
        </mxCell>
        <mxCell id="R5nIYqu6_4dfiVNAs0mq-170" style="edgeStyle=none;curved=1;rounded=0;orthogonalLoop=1;jettySize=auto;html=1;entryX=0.918;entryY=0.089;entryDx=0;entryDy=0;fontSize=12;startSize=8;endSize=8;entryPerimeter=0;" edge="1" parent="1" target="R5nIYqu6_4dfiVNAs0mq-154">
          <mxGeometry relative="1" as="geometry">
            <mxPoint x="-1151.25" y="842.6199999999999" as="sourcePoint" />
            <mxPoint x="-1152.25" y="857.6199999999999" as="targetPoint" />
          </mxGeometry>
        </mxCell>
        <mxCell id="R5nIYqu6_4dfiVNAs0mq-171" value="&lt;font style=&quot;font-size: 8px;&quot; color=&quot;#ff0000&quot;&gt;Cross_cond&lt;/font&gt;" style="text;html=1;align=center;verticalAlign=middle;resizable=0;points=[];autosize=1;strokeColor=none;fillColor=none;fontStyle=1" vertex="1" parent="1">
          <mxGeometry x="-1176.25" y="820.6199999999999" width="61" height="26" as="geometry" />
        </mxCell>
        <mxCell id="R5nIYqu6_4dfiVNAs0mq-172" style="edgeStyle=none;curved=1;rounded=0;orthogonalLoop=1;jettySize=auto;html=1;exitX=0.5;exitY=1;exitDx=0;exitDy=0;exitPerimeter=0;fontSize=12;startSize=8;endSize=8;" edge="1" parent="1" source="R5nIYqu6_4dfiVNAs0mq-173">
          <mxGeometry relative="1" as="geometry">
            <mxPoint x="-1211.5" y="1240.332365989685" as="targetPoint" />
          </mxGeometry>
        </mxCell>
        <mxCell id="R5nIYqu6_4dfiVNAs0mq-173" value="" style="verticalLabelPosition=bottom;verticalAlign=top;html=1;shape=mxgraph.flowchart.summing_function;" vertex="1" parent="1">
          <mxGeometry x="-1218.75" y="1197.62" width="15" height="15" as="geometry" />
        </mxCell>
        <mxCell id="R5nIYqu6_4dfiVNAs0mq-174" style="edgeStyle=none;curved=1;rounded=0;orthogonalLoop=1;jettySize=auto;html=1;exitX=0.5;exitY=1;exitDx=0;exitDy=0;entryX=0.5;entryY=0;entryDx=0;entryDy=0;entryPerimeter=0;fontSize=12;startSize=8;endSize=8;" edge="1" parent="1" source="R5nIYqu6_4dfiVNAs0mq-168" target="R5nIYqu6_4dfiVNAs0mq-173">
          <mxGeometry relative="1" as="geometry" />
        </mxCell>
        <mxCell id="R5nIYqu6_4dfiVNAs0mq-175" style="edgeStyle=none;curved=0;rounded=1;orthogonalLoop=1;jettySize=auto;html=1;fontSize=12;startSize=8;endSize=8;entryX=1;entryY=0.5;entryDx=0;entryDy=0;entryPerimeter=0;" edge="1" parent="1" target="R5nIYqu6_4dfiVNAs0mq-173">
          <mxGeometry relative="1" as="geometry">
            <mxPoint x="-1211.25" y="498.6199999999999" as="sourcePoint" />
            <mxPoint x="-1140.25" y="809.6199999999999" as="targetPoint" />
            <Array as="points">
              <mxPoint x="-1052.25" y="498.6199999999999" />
              <mxPoint x="-1046.25" y="1202.62" />
            </Array>
          </mxGeometry>
        </mxCell>
        <mxCell id="R5nIYqu6_4dfiVNAs0mq-176" style="edgeStyle=none;curved=1;rounded=0;orthogonalLoop=1;jettySize=auto;html=1;entryX=0.5;entryY=0;entryDx=0;entryDy=0;fontSize=12;startSize=8;endSize=8;" edge="1" parent="1" target="R5nIYqu6_4dfiVNAs0mq-156">
          <mxGeometry relative="1" as="geometry">
            <mxPoint x="-1211.25" y="777" as="sourcePoint" />
          </mxGeometry>
        </mxCell>
        <mxCell id="R5nIYqu6_4dfiVNAs0mq-177" style="edgeStyle=none;curved=1;rounded=0;orthogonalLoop=1;jettySize=auto;html=1;entryX=0.5;entryY=0;entryDx=0;entryDy=0;fontSize=12;startSize=8;endSize=8;" edge="1" parent="1" target="R5nIYqu6_4dfiVNAs0mq-163">
          <mxGeometry relative="1" as="geometry">
            <mxPoint x="-1211.25" y="938" as="sourcePoint" />
          </mxGeometry>
        </mxCell>
        <mxCell id="R5nIYqu6_4dfiVNAs0mq-181" value="&lt;font color=&quot;#ff0000&quot;&gt;b,c,f,h,w&lt;/font&gt;" style="text;html=1;align=center;verticalAlign=middle;resizable=0;points=[];autosize=1;strokeColor=none;fillColor=none;" vertex="1" parent="1">
          <mxGeometry x="-1238.5" y="1240" width="63" height="26" as="geometry" />
        </mxCell>
        <mxCell id="R5nIYqu6_4dfiVNAs0mq-304" style="edgeStyle=none;curved=1;rounded=0;orthogonalLoop=1;jettySize=auto;html=1;exitX=0.5;exitY=1;exitDx=0;exitDy=0;fontSize=12;startSize=8;endSize=8;" edge="1" parent="1" source="R5nIYqu6_4dfiVNAs0mq-184" target="R5nIYqu6_4dfiVNAs0mq-290">
          <mxGeometry relative="1" as="geometry" />
        </mxCell>
        <mxCell id="R5nIYqu6_4dfiVNAs0mq-184" value="&lt;font style=&quot;font-size: 18px;&quot;&gt;Con_in&lt;/font&gt;" style="rounded=1;whiteSpace=wrap;html=1;" vertex="1" parent="1">
          <mxGeometry x="-1021.11" y="2322" width="115.11" height="35" as="geometry" />
        </mxCell>
        <mxCell id="R5nIYqu6_4dfiVNAs0mq-186" style="edgeStyle=none;curved=1;rounded=0;orthogonalLoop=1;jettySize=auto;html=1;entryX=0.5;entryY=0;entryDx=0;entryDy=0;fontSize=12;startSize=8;endSize=8;" edge="1" parent="1" source="R5nIYqu6_4dfiVNAs0mq-185" target="R5nIYqu6_4dfiVNAs0mq-184">
          <mxGeometry relative="1" as="geometry" />
        </mxCell>
        <mxCell id="R5nIYqu6_4dfiVNAs0mq-185" value="&lt;font color=&quot;#ff0000&quot;&gt;cross_in&lt;/font&gt;" style="text;html=1;align=center;verticalAlign=middle;resizable=0;points=[];autosize=1;strokeColor=none;fillColor=none;" vertex="1" parent="1">
          <mxGeometry x="-994.4999999999999" y="2252" width="63" height="26" as="geometry" />
        </mxCell>
        <mxCell id="R5nIYqu6_4dfiVNAs0mq-191" style="edgeStyle=none;curved=0;rounded=1;orthogonalLoop=1;jettySize=auto;html=1;fontSize=12;startSize=8;endSize=8;entryX=1;entryY=0.5;entryDx=0;entryDy=0;entryPerimeter=0;" edge="1" parent="1" target="R5nIYqu6_4dfiVNAs0mq-157">
          <mxGeometry relative="1" as="geometry">
            <mxPoint x="-1118.3799999999999" y="759" as="sourcePoint" />
            <mxPoint x="-1200.25" y="927.4999999999999" as="targetPoint" />
            <Array as="points">
              <mxPoint x="-1118.25" y="930" />
            </Array>
          </mxGeometry>
        </mxCell>
        <mxCell id="R5nIYqu6_4dfiVNAs0mq-194" style="edgeStyle=none;curved=0;rounded=1;orthogonalLoop=1;jettySize=auto;html=1;fontSize=12;startSize=8;endSize=8;entryX=1;entryY=0.5;entryDx=0;entryDy=0;entryPerimeter=0;" edge="1" parent="1" target="R5nIYqu6_4dfiVNAs0mq-165">
          <mxGeometry relative="1" as="geometry">
            <mxPoint x="-1117.88" y="922.62" as="sourcePoint" />
            <mxPoint x="-1203.75" y="1093.62" as="targetPoint" />
            <Array as="points">
              <mxPoint x="-1118.25" y="1088" />
            </Array>
          </mxGeometry>
        </mxCell>
        <mxCell id="R5nIYqu6_4dfiVNAs0mq-195" value="" style="rounded=1;whiteSpace=wrap;html=1;fillStyle=auto;fillColor=#dae8fc;strokeColor=#6c8ebf;" vertex="1" parent="1">
          <mxGeometry x="-595.75" y="627.6199999999999" width="277" height="484" as="geometry" />
        </mxCell>
        <mxCell id="R5nIYqu6_4dfiVNAs0mq-196" value="" style="rounded=1;whiteSpace=wrap;html=1;fillColor=#d5e8d4;strokeColor=#82b366;" vertex="1" parent="1">
          <mxGeometry x="-535" y="658.6199999999999" width="156" height="92" as="geometry" />
        </mxCell>
        <mxCell id="R5nIYqu6_4dfiVNAs0mq-197" value="&lt;font color=&quot;#ff0000&quot;&gt;&lt;b&gt;TMT&lt;/b&gt;&lt;/font&gt;" style="text;html=1;align=center;verticalAlign=middle;resizable=0;points=[];autosize=1;strokeColor=none;fillColor=none;fontSize=16;" vertex="1" parent="1">
          <mxGeometry x="-481" y="370.88" width="51" height="31" as="geometry" />
        </mxCell>
        <mxCell id="R5nIYqu6_4dfiVNAs0mq-198" value="self-Attention" style="rounded=1;whiteSpace=wrap;html=1;" vertex="1" parent="1">
          <mxGeometry x="-530" y="713.6199999999999" width="145" height="24" as="geometry" />
        </mxCell>
        <mxCell id="R5nIYqu6_4dfiVNAs0mq-199" style="edgeStyle=none;curved=1;rounded=0;orthogonalLoop=1;jettySize=auto;html=1;exitX=0.5;exitY=1;exitDx=0;exitDy=0;entryX=0.5;entryY=0;entryDx=0;entryDy=0;fontSize=12;startSize=8;endSize=8;" edge="1" parent="1" source="R5nIYqu6_4dfiVNAs0mq-200" target="R5nIYqu6_4dfiVNAs0mq-198">
          <mxGeometry relative="1" as="geometry" />
        </mxCell>
        <mxCell id="R5nIYqu6_4dfiVNAs0mq-200" value="LN" style="rounded=1;whiteSpace=wrap;html=1;" vertex="1" parent="1">
          <mxGeometry x="-499" y="669.6199999999999" width="84" height="24" as="geometry" />
        </mxCell>
        <mxCell id="R5nIYqu6_4dfiVNAs0mq-201" value="" style="verticalLabelPosition=bottom;verticalAlign=top;html=1;shape=mxgraph.flowchart.summing_function;" vertex="1" parent="1">
          <mxGeometry x="-464.5" y="765.6199999999999" width="15" height="15" as="geometry" />
        </mxCell>
        <mxCell id="R5nIYqu6_4dfiVNAs0mq-202" value="&lt;font color=&quot;#ff0000&quot;&gt;zero_init&lt;/font&gt;" style="text;html=1;align=center;verticalAlign=middle;resizable=0;points=[];autosize=1;strokeColor=none;fillColor=none;fontStyle=1" vertex="1" parent="1">
          <mxGeometry x="-400.5" y="1138.62" width="63" height="26" as="geometry" />
        </mxCell>
        <mxCell id="R5nIYqu6_4dfiVNAs0mq-203" value="&lt;b style=&quot;&quot;&gt;(TemporalTransformer)&lt;/b&gt;" style="text;html=1;align=center;verticalAlign=middle;resizable=0;points=[];autosize=1;strokeColor=none;fillColor=none;fontSize=16;" vertex="1" parent="1">
          <mxGeometry x="-437" y="370.88" width="193" height="31" as="geometry" />
        </mxCell>
        <mxCell id="R5nIYqu6_4dfiVNAs0mq-204" style="edgeStyle=none;curved=1;rounded=0;orthogonalLoop=1;jettySize=auto;html=1;exitX=0.5;exitY=1;exitDx=0;exitDy=0;entryX=0.5;entryY=0;entryDx=0;entryDy=0;fontSize=12;startSize=8;endSize=8;" edge="1" parent="1" source="R5nIYqu6_4dfiVNAs0mq-205" target="R5nIYqu6_4dfiVNAs0mq-210">
          <mxGeometry relative="1" as="geometry" />
        </mxCell>
        <mxCell id="R5nIYqu6_4dfiVNAs0mq-205" value="GN" style="rounded=1;whiteSpace=wrap;html=1;" vertex="1" parent="1">
          <mxGeometry x="-497.12" y="522.6199999999999" width="78.25" height="24" as="geometry" />
        </mxCell>
        <mxCell id="R5nIYqu6_4dfiVNAs0mq-206" value="Video_frames" style="text;html=1;align=center;verticalAlign=middle;resizable=0;points=[];autosize=1;strokeColor=none;fillColor=none;" vertex="1" parent="1">
          <mxGeometry x="-501.5" y="443" width="92" height="26" as="geometry" />
        </mxCell>
        <mxCell id="R5nIYqu6_4dfiVNAs0mq-207" style="edgeStyle=none;curved=1;rounded=0;orthogonalLoop=1;jettySize=auto;html=1;entryX=0.5;entryY=0;entryDx=0;entryDy=0;fontSize=12;startSize=8;endSize=8;" edge="1" parent="1" target="R5nIYqu6_4dfiVNAs0mq-205">
          <mxGeometry relative="1" as="geometry">
            <mxPoint x="-458" y="474" as="sourcePoint" />
          </mxGeometry>
        </mxCell>
        <mxCell id="R5nIYqu6_4dfiVNAs0mq-208" value="&lt;font color=&quot;#ff0000&quot;&gt;b,c,f,h,w -&amp;gt; (b f) c h w -&amp;gt; (b f) h w c -&amp;gt; (b f) (hw) c -&amp;gt; (b (h w)) f c&lt;/font&gt;" style="text;html=1;align=center;verticalAlign=middle;resizable=0;points=[];autosize=1;strokeColor=none;fillColor=none;" vertex="1" parent="1">
          <mxGeometry x="-405.74" y="443" width="357" height="26" as="geometry" />
        </mxCell>
        <mxCell id="R5nIYqu6_4dfiVNAs0mq-209" style="edgeStyle=none;curved=1;rounded=0;orthogonalLoop=1;jettySize=auto;html=1;exitX=0.5;exitY=1;exitDx=0;exitDy=0;entryX=0.5;entryY=0;entryDx=0;entryDy=0;fontSize=12;startSize=8;endSize=8;" edge="1" parent="1" source="R5nIYqu6_4dfiVNAs0mq-210" target="R5nIYqu6_4dfiVNAs0mq-200">
          <mxGeometry relative="1" as="geometry" />
        </mxCell>
        <mxCell id="R5nIYqu6_4dfiVNAs0mq-210" value="Project_In" style="rounded=1;whiteSpace=wrap;html=1;" vertex="1" parent="1">
          <mxGeometry x="-510.24" y="569.6199999999999" width="104.5" height="24" as="geometry" />
        </mxCell>
        <mxCell id="R5nIYqu6_4dfiVNAs0mq-211" style="edgeStyle=none;curved=1;rounded=0;orthogonalLoop=1;jettySize=auto;html=1;exitX=0.5;exitY=1;exitDx=0;exitDy=0;entryX=0.5;entryY=0;entryDx=0;entryDy=0;entryPerimeter=0;fontSize=12;startSize=8;endSize=8;" edge="1" parent="1" source="R5nIYqu6_4dfiVNAs0mq-198" target="R5nIYqu6_4dfiVNAs0mq-201">
          <mxGeometry relative="1" as="geometry" />
        </mxCell>
        <mxCell id="R5nIYqu6_4dfiVNAs0mq-212" style="edgeStyle=none;curved=0;rounded=1;orthogonalLoop=1;jettySize=auto;html=1;fontSize=12;startSize=8;endSize=8;entryX=1;entryY=0.5;entryDx=0;entryDy=0;entryPerimeter=0;" edge="1" parent="1" target="R5nIYqu6_4dfiVNAs0mq-201">
          <mxGeometry relative="1" as="geometry">
            <mxPoint x="-456.5" y="641.6199999999999" as="sourcePoint" />
            <mxPoint x="-352.5" y="782.6199999999999" as="targetPoint" />
            <Array as="points">
              <mxPoint x="-369.5" y="641.6199999999999" />
              <mxPoint x="-369.5" y="770.6199999999999" />
            </Array>
          </mxGeometry>
        </mxCell>
        <mxCell id="R5nIYqu6_4dfiVNAs0mq-213" value="" style="rounded=1;whiteSpace=wrap;html=1;fillColor=#d5e8d4;strokeColor=#82b366;" vertex="1" parent="1">
          <mxGeometry x="-535" y="819.6199999999999" width="156" height="92" as="geometry" />
        </mxCell>
        <mxCell id="R5nIYqu6_4dfiVNAs0mq-214" value="Temporal-Attention" style="rounded=1;whiteSpace=wrap;html=1;" vertex="1" parent="1">
          <mxGeometry x="-529" y="874.6199999999999" width="144" height="24" as="geometry" />
        </mxCell>
        <mxCell id="R5nIYqu6_4dfiVNAs0mq-215" style="edgeStyle=none;curved=1;rounded=0;orthogonalLoop=1;jettySize=auto;html=1;exitX=0.5;exitY=1;exitDx=0;exitDy=0;entryX=0.5;entryY=0;entryDx=0;entryDy=0;fontSize=12;startSize=8;endSize=8;" edge="1" parent="1" source="R5nIYqu6_4dfiVNAs0mq-216" target="R5nIYqu6_4dfiVNAs0mq-214">
          <mxGeometry relative="1" as="geometry" />
        </mxCell>
        <mxCell id="R5nIYqu6_4dfiVNAs0mq-216" value="LN" style="rounded=1;whiteSpace=wrap;html=1;" vertex="1" parent="1">
          <mxGeometry x="-499" y="830.6199999999999" width="84" height="24" as="geometry" />
        </mxCell>
        <mxCell id="R5nIYqu6_4dfiVNAs0mq-217" value="" style="verticalLabelPosition=bottom;verticalAlign=top;html=1;shape=mxgraph.flowchart.summing_function;" vertex="1" parent="1">
          <mxGeometry x="-464.5" y="926.6199999999999" width="15" height="15" as="geometry" />
        </mxCell>
        <mxCell id="R5nIYqu6_4dfiVNAs0mq-218" style="edgeStyle=none;curved=1;rounded=0;orthogonalLoop=1;jettySize=auto;html=1;exitX=0.5;exitY=1;exitDx=0;exitDy=0;entryX=0.5;entryY=0;entryDx=0;entryDy=0;entryPerimeter=0;fontSize=12;startSize=8;endSize=8;" edge="1" parent="1" source="R5nIYqu6_4dfiVNAs0mq-214" target="R5nIYqu6_4dfiVNAs0mq-217">
          <mxGeometry relative="1" as="geometry" />
        </mxCell>
        <mxCell id="R5nIYqu6_4dfiVNAs0mq-219" style="edgeStyle=none;curved=0;rounded=1;orthogonalLoop=1;jettySize=auto;html=1;fontSize=12;startSize=8;endSize=8;entryX=1;entryY=0.5;entryDx=0;entryDy=0;entryPerimeter=0;" edge="1" parent="1" target="R5nIYqu6_4dfiVNAs0mq-217">
          <mxGeometry relative="1" as="geometry">
            <mxPoint x="-456.5" y="802.6199999999999" as="sourcePoint" />
            <mxPoint x="-352.5" y="943.6199999999999" as="targetPoint" />
            <Array as="points">
              <mxPoint x="-369.5" y="802.6199999999999" />
              <mxPoint x="-369.5" y="931.6199999999999" />
            </Array>
          </mxGeometry>
        </mxCell>
        <mxCell id="R5nIYqu6_4dfiVNAs0mq-220" value="" style="rounded=1;whiteSpace=wrap;html=1;fillColor=#d5e8d4;strokeColor=#82b366;" vertex="1" parent="1">
          <mxGeometry x="-535" y="976.6199999999999" width="156" height="92" as="geometry" />
        </mxCell>
        <mxCell id="R5nIYqu6_4dfiVNAs0mq-221" value="FeedForward" style="rounded=1;whiteSpace=wrap;html=1;" vertex="1" parent="1">
          <mxGeometry x="-514" y="1031.62" width="113.5" height="24" as="geometry" />
        </mxCell>
        <mxCell id="R5nIYqu6_4dfiVNAs0mq-222" style="edgeStyle=none;curved=1;rounded=0;orthogonalLoop=1;jettySize=auto;html=1;exitX=0.5;exitY=1;exitDx=0;exitDy=0;entryX=0.5;entryY=0;entryDx=0;entryDy=0;fontSize=12;startSize=8;endSize=8;" edge="1" parent="1" source="R5nIYqu6_4dfiVNAs0mq-223" target="R5nIYqu6_4dfiVNAs0mq-221">
          <mxGeometry relative="1" as="geometry" />
        </mxCell>
        <mxCell id="R5nIYqu6_4dfiVNAs0mq-223" value="LN" style="rounded=1;whiteSpace=wrap;html=1;" vertex="1" parent="1">
          <mxGeometry x="-499" y="987.6199999999998" width="84" height="24" as="geometry" />
        </mxCell>
        <mxCell id="R5nIYqu6_4dfiVNAs0mq-224" style="edgeStyle=none;curved=1;rounded=0;orthogonalLoop=1;jettySize=auto;html=1;exitX=0.5;exitY=1;exitDx=0;exitDy=0;exitPerimeter=0;entryX=0.5;entryY=0;entryDx=0;entryDy=0;fontSize=12;startSize=8;endSize=8;" edge="1" parent="1" source="R5nIYqu6_4dfiVNAs0mq-225" target="R5nIYqu6_4dfiVNAs0mq-228">
          <mxGeometry relative="1" as="geometry">
            <mxPoint x="-456.99999999999955" y="1138.62" as="targetPoint" />
          </mxGeometry>
        </mxCell>
        <mxCell id="R5nIYqu6_4dfiVNAs0mq-225" value="" style="verticalLabelPosition=bottom;verticalAlign=top;html=1;shape=mxgraph.flowchart.summing_function;" vertex="1" parent="1">
          <mxGeometry x="-464.5" y="1083.62" width="15" height="15" as="geometry" />
        </mxCell>
        <mxCell id="R5nIYqu6_4dfiVNAs0mq-226" style="edgeStyle=none;curved=1;rounded=0;orthogonalLoop=1;jettySize=auto;html=1;exitX=0.5;exitY=1;exitDx=0;exitDy=0;entryX=0.5;entryY=0;entryDx=0;entryDy=0;entryPerimeter=0;fontSize=12;startSize=8;endSize=8;" edge="1" parent="1" source="R5nIYqu6_4dfiVNAs0mq-221" target="R5nIYqu6_4dfiVNAs0mq-225">
          <mxGeometry relative="1" as="geometry" />
        </mxCell>
        <mxCell id="R5nIYqu6_4dfiVNAs0mq-227" style="edgeStyle=none;curved=0;rounded=1;orthogonalLoop=1;jettySize=auto;html=1;fontSize=12;startSize=8;endSize=8;entryX=1;entryY=0.5;entryDx=0;entryDy=0;entryPerimeter=0;" edge="1" parent="1" target="R5nIYqu6_4dfiVNAs0mq-225">
          <mxGeometry relative="1" as="geometry">
            <mxPoint x="-456.5" y="959.6199999999999" as="sourcePoint" />
            <mxPoint x="-352.5" y="1100.62" as="targetPoint" />
            <Array as="points">
              <mxPoint x="-369.5" y="959.6199999999999" />
              <mxPoint x="-369.5" y="1088.62" />
            </Array>
          </mxGeometry>
        </mxCell>
        <mxCell id="R5nIYqu6_4dfiVNAs0mq-228" value="Project_out" style="rounded=1;whiteSpace=wrap;html=1;" vertex="1" parent="1">
          <mxGeometry x="-509.25" y="1139.62" width="104.5" height="24" as="geometry" />
        </mxCell>
        <mxCell id="R5nIYqu6_4dfiVNAs0mq-230" style="edgeStyle=none;curved=1;rounded=0;orthogonalLoop=1;jettySize=auto;html=1;entryX=0.912;entryY=0.019;entryDx=0;entryDy=0;fontSize=12;startSize=8;endSize=8;entryPerimeter=0;" edge="1" parent="1" target="R5nIYqu6_4dfiVNAs0mq-198">
          <mxGeometry relative="1" as="geometry">
            <mxPoint x="-398" y="688.6199999999999" as="sourcePoint" />
            <mxPoint x="-398" y="705.6199999999999" as="targetPoint" />
          </mxGeometry>
        </mxCell>
        <mxCell id="R5nIYqu6_4dfiVNAs0mq-231" style="edgeStyle=none;curved=1;rounded=0;orthogonalLoop=1;jettySize=auto;html=1;entryX=0.918;entryY=0.089;entryDx=0;entryDy=0;fontSize=12;startSize=8;endSize=8;entryPerimeter=0;" edge="1" parent="1" target="R5nIYqu6_4dfiVNAs0mq-214">
          <mxGeometry relative="1" as="geometry">
            <mxPoint x="-397" y="846.6199999999999" as="sourcePoint" />
            <mxPoint x="-398" y="861.6199999999999" as="targetPoint" />
          </mxGeometry>
        </mxCell>
        <mxCell id="R5nIYqu6_4dfiVNAs0mq-232" value="&lt;font style=&quot;font-size: 8px;&quot; color=&quot;#ff0000&quot;&gt;&amp;nbsp;(&lt;/font&gt;&lt;font style=&quot;font-size: 8px;&quot;&gt;Here is self&lt;/font&gt;&lt;font style=&quot;font-size: 8px;&quot; color=&quot;#ff0000&quot;&gt;)&lt;/font&gt;" style="text;html=1;align=center;verticalAlign=middle;resizable=0;points=[];autosize=1;strokeColor=none;fillColor=none;fontStyle=1" vertex="1" parent="1">
          <mxGeometry x="-412" y="662" width="66" height="26" as="geometry" />
        </mxCell>
        <mxCell id="R5nIYqu6_4dfiVNAs0mq-233" style="edgeStyle=none;curved=1;rounded=0;orthogonalLoop=1;jettySize=auto;html=1;exitX=0.5;exitY=1;exitDx=0;exitDy=0;exitPerimeter=0;fontSize=12;startSize=8;endSize=8;" edge="1" parent="1" source="R5nIYqu6_4dfiVNAs0mq-234">
          <mxGeometry relative="1" as="geometry">
            <mxPoint x="-457.25" y="1244.332365989685" as="targetPoint" />
          </mxGeometry>
        </mxCell>
        <mxCell id="R5nIYqu6_4dfiVNAs0mq-234" value="" style="verticalLabelPosition=bottom;verticalAlign=top;html=1;shape=mxgraph.flowchart.summing_function;" vertex="1" parent="1">
          <mxGeometry x="-464.5" y="1201.62" width="15" height="15" as="geometry" />
        </mxCell>
        <mxCell id="R5nIYqu6_4dfiVNAs0mq-235" style="edgeStyle=none;curved=1;rounded=0;orthogonalLoop=1;jettySize=auto;html=1;exitX=0.5;exitY=1;exitDx=0;exitDy=0;entryX=0.5;entryY=0;entryDx=0;entryDy=0;entryPerimeter=0;fontSize=12;startSize=8;endSize=8;" edge="1" parent="1" source="R5nIYqu6_4dfiVNAs0mq-228" target="R5nIYqu6_4dfiVNAs0mq-234">
          <mxGeometry relative="1" as="geometry" />
        </mxCell>
        <mxCell id="R5nIYqu6_4dfiVNAs0mq-236" style="edgeStyle=none;curved=0;rounded=1;orthogonalLoop=1;jettySize=auto;html=1;fontSize=12;startSize=8;endSize=8;entryX=1;entryY=0.5;entryDx=0;entryDy=0;entryPerimeter=0;" edge="1" parent="1" target="R5nIYqu6_4dfiVNAs0mq-234">
          <mxGeometry relative="1" as="geometry">
            <mxPoint x="-457" y="502.6199999999999" as="sourcePoint" />
            <mxPoint x="-386" y="813.6199999999999" as="targetPoint" />
            <Array as="points">
              <mxPoint x="-298" y="502.6199999999999" />
              <mxPoint x="-292" y="1206.62" />
            </Array>
          </mxGeometry>
        </mxCell>
        <mxCell id="R5nIYqu6_4dfiVNAs0mq-237" style="edgeStyle=none;curved=1;rounded=0;orthogonalLoop=1;jettySize=auto;html=1;entryX=0.5;entryY=0;entryDx=0;entryDy=0;fontSize=12;startSize=8;endSize=8;" edge="1" parent="1" target="R5nIYqu6_4dfiVNAs0mq-216">
          <mxGeometry relative="1" as="geometry">
            <mxPoint x="-457" y="781" as="sourcePoint" />
          </mxGeometry>
        </mxCell>
        <mxCell id="R5nIYqu6_4dfiVNAs0mq-238" style="edgeStyle=none;curved=1;rounded=0;orthogonalLoop=1;jettySize=auto;html=1;entryX=0.5;entryY=0;entryDx=0;entryDy=0;fontSize=12;startSize=8;endSize=8;" edge="1" parent="1" target="R5nIYqu6_4dfiVNAs0mq-223">
          <mxGeometry relative="1" as="geometry">
            <mxPoint x="-457" y="942" as="sourcePoint" />
          </mxGeometry>
        </mxCell>
        <mxCell id="R5nIYqu6_4dfiVNAs0mq-239" value="&lt;font color=&quot;#ff0000&quot;&gt;b,c,f,h,w&lt;/font&gt;" style="text;html=1;align=center;verticalAlign=middle;resizable=0;points=[];autosize=1;strokeColor=none;fillColor=none;" vertex="1" parent="1">
          <mxGeometry x="-489.5" y="1244" width="63" height="26" as="geometry" />
        </mxCell>
        <mxCell id="R5nIYqu6_4dfiVNAs0mq-240" value="&lt;font color=&quot;#ff0000&quot;&gt;(b f) d c&amp;nbsp;&lt;/font&gt;" style="text;html=1;align=center;verticalAlign=middle;resizable=0;points=[];autosize=1;strokeColor=none;fillColor=none;" vertex="1" parent="1">
          <mxGeometry x="-530" y="734" width="62" height="26" as="geometry" />
        </mxCell>
        <mxCell id="R5nIYqu6_4dfiVNAs0mq-241" value="&lt;font color=&quot;#ff0000&quot;&gt;(b d) f c&lt;/font&gt;" style="text;html=1;align=center;verticalAlign=middle;resizable=0;points=[];autosize=1;strokeColor=none;fillColor=none;" vertex="1" parent="1">
          <mxGeometry x="-589" y="711.6199999999999" width="59" height="26" as="geometry" />
        </mxCell>
        <mxCell id="R5nIYqu6_4dfiVNAs0mq-242" value="&lt;font style=&quot;font-size: 8px;&quot; color=&quot;#ff0000&quot;&gt;&amp;nbsp;(&lt;/font&gt;&lt;font style=&quot;font-size: 8px;&quot;&gt;Here is self&lt;/font&gt;&lt;font style=&quot;font-size: 8px;&quot; color=&quot;#ff0000&quot;&gt;)&lt;/font&gt;" style="text;html=1;align=center;verticalAlign=middle;resizable=0;points=[];autosize=1;strokeColor=none;fillColor=none;fontStyle=1" vertex="1" parent="1">
          <mxGeometry x="-405.74" y="819.6199999999999" width="66" height="26" as="geometry" />
        </mxCell>
        <mxCell id="R5nIYqu6_4dfiVNAs0mq-243" value="&lt;font color=&quot;#ff0000&quot;&gt;The cond_img use Noise masked or not&amp;nbsp;&lt;/font&gt;" style="text;html=1;align=center;verticalAlign=middle;resizable=0;points=[];autosize=1;strokeColor=none;fillColor=none;fontSize=16;" vertex="1" parent="1">
          <mxGeometry x="-810" y="476" width="305" height="31" as="geometry" />
        </mxCell>
        <mxCell id="R5nIYqu6_4dfiVNAs0mq-244" value="&lt;font color=&quot;#ff0000&quot;&gt;&lt;b&gt;When use the Motion Module to tuning-fine the diffusion model, need to Zero init the module or remodel the potimizer learning rate??&lt;/b&gt;&lt;/font&gt;" style="text;html=1;align=center;verticalAlign=middle;resizable=0;points=[];autosize=1;strokeColor=none;fillColor=none;fontSize=16;" vertex="1" parent="1">
          <mxGeometry x="-993" y="309" width="1032" height="31" as="geometry" />
        </mxCell>
        <mxCell id="R5nIYqu6_4dfiVNAs0mq-245" value="GNorm&amp;amp;Act" style="rounded=1;whiteSpace=wrap;html=1;" vertex="1" parent="1">
          <mxGeometry x="168.5" y="572.55" width="84" height="24" as="geometry" />
        </mxCell>
        <mxCell id="R5nIYqu6_4dfiVNAs0mq-246" value="" style="endArrow=classic;html=1;rounded=0;fontSize=12;startSize=8;endSize=8;" edge="1" parent="1" source="R5nIYqu6_4dfiVNAs0mq-247">
          <mxGeometry width="50" height="50" relative="1" as="geometry">
            <mxPoint x="210.5" y="527.55" as="sourcePoint" />
            <mxPoint x="210.5" y="572.55" as="targetPoint" />
          </mxGeometry>
        </mxCell>
        <mxCell id="R5nIYqu6_4dfiVNAs0mq-247" value="&lt;font style=&quot;font-size: 11px;&quot;&gt;Input&lt;/font&gt;" style="text;html=1;align=center;verticalAlign=middle;resizable=0;points=[];autosize=1;strokeColor=none;fillColor=none;fontSize=16;rounded=0;" vertex="1" parent="1">
          <mxGeometry x="188" y="459.05" width="42" height="31" as="geometry" />
        </mxCell>
        <mxCell id="R5nIYqu6_4dfiVNAs0mq-248" value="Up/Down(to see detail)" style="rounded=1;whiteSpace=wrap;html=1;" vertex="1" parent="1">
          <mxGeometry x="148.5" y="622.05" width="207" height="24" as="geometry" />
        </mxCell>
        <mxCell id="R5nIYqu6_4dfiVNAs0mq-249" value="" style="endArrow=classic;html=1;rounded=0;fontSize=12;startSize=8;endSize=8;" edge="1" parent="1">
          <mxGeometry width="50" height="50" relative="1" as="geometry">
            <mxPoint x="210" y="596.55" as="sourcePoint" />
            <mxPoint x="210" y="623.55" as="targetPoint" />
          </mxGeometry>
        </mxCell>
        <mxCell id="R5nIYqu6_4dfiVNAs0mq-250" value="" style="endArrow=classic;html=1;rounded=0;fontSize=12;startSize=8;endSize=8;" edge="1" parent="1">
          <mxGeometry width="50" height="50" relative="1" as="geometry">
            <mxPoint x="210.5" y="541.05" as="sourcePoint" />
            <mxPoint x="305.5" y="623.05" as="targetPoint" />
            <Array as="points">
              <mxPoint x="305.5" y="541.05" />
            </Array>
          </mxGeometry>
        </mxCell>
        <mxCell id="R5nIYqu6_4dfiVNAs0mq-251" value="Conv(3.3)" style="rounded=1;whiteSpace=wrap;html=1;" vertex="1" parent="1">
          <mxGeometry x="168.5" y="674.05" width="84" height="24" as="geometry" />
        </mxCell>
        <mxCell id="R5nIYqu6_4dfiVNAs0mq-252" value="" style="endArrow=classic;html=1;rounded=0;fontSize=12;startSize=8;endSize=8;" edge="1" parent="1">
          <mxGeometry width="50" height="50" relative="1" as="geometry">
            <mxPoint x="210" y="646.05" as="sourcePoint" />
            <mxPoint x="210" y="673.05" as="targetPoint" />
          </mxGeometry>
        </mxCell>
        <mxCell id="R5nIYqu6_4dfiVNAs0mq-253" value="" style="endArrow=classic;html=1;rounded=0;fontSize=12;startSize=8;endSize=8;" edge="1" parent="1">
          <mxGeometry width="50" height="50" relative="1" as="geometry">
            <mxPoint x="210" y="698.05" as="sourcePoint" />
            <mxPoint x="210" y="725.05" as="targetPoint" />
          </mxGeometry>
        </mxCell>
        <mxCell id="R5nIYqu6_4dfiVNAs0mq-254" value="" style="shape=orEllipse;perimeter=ellipsePerimeter;whiteSpace=wrap;html=1;backgroundOutline=1;rounded=0;" vertex="1" parent="1">
          <mxGeometry x="202" y="726.05" width="17" height="16" as="geometry" />
        </mxCell>
        <mxCell id="R5nIYqu6_4dfiVNAs0mq-255" value="Act&amp;amp;Dense" style="rounded=1;whiteSpace=wrap;html=1;" vertex="1" parent="1">
          <mxGeometry x="21" y="808.05" width="84" height="24" as="geometry" />
        </mxCell>
        <mxCell id="R5nIYqu6_4dfiVNAs0mq-256" value="" style="endArrow=classic;html=1;rounded=0;fontSize=12;startSize=8;endSize=8;exitX=0.51;exitY=0.097;exitDx=0;exitDy=0;exitPerimeter=0;" edge="1" parent="1" source="R5nIYqu6_4dfiVNAs0mq-257">
          <mxGeometry width="50" height="50" relative="1" as="geometry">
            <mxPoint x="67" y="876.05" as="sourcePoint" />
            <mxPoint x="65" y="832.05" as="targetPoint" />
          </mxGeometry>
        </mxCell>
        <mxCell id="R5nIYqu6_4dfiVNAs0mq-257" value="&lt;font style=&quot;font-size: 11px;&quot;&gt;time embedding&lt;/font&gt;" style="text;html=1;align=center;verticalAlign=middle;resizable=0;points=[];autosize=1;strokeColor=none;fillColor=none;fontSize=16;rounded=0;" vertex="1" parent="1">
          <mxGeometry x="17" y="872.05" width="96" height="31" as="geometry" />
        </mxCell>
        <mxCell id="R5nIYqu6_4dfiVNAs0mq-258" value="Act&amp;amp;Conv(1.1)" style="rounded=1;whiteSpace=wrap;html=1;" vertex="1" parent="1">
          <mxGeometry x="19.5" y="674.05" width="84" height="24" as="geometry" />
        </mxCell>
        <mxCell id="R5nIYqu6_4dfiVNAs0mq-259" value="" style="endArrow=classic;html=1;rounded=0;fontSize=12;startSize=8;endSize=8;" edge="1" parent="1">
          <mxGeometry width="50" height="50" relative="1" as="geometry">
            <mxPoint x="61" y="629.05" as="sourcePoint" />
            <mxPoint x="61" y="674.05" as="targetPoint" />
          </mxGeometry>
        </mxCell>
        <mxCell id="R5nIYqu6_4dfiVNAs0mq-260" value="" style="endArrow=classic;html=1;rounded=0;fontSize=12;startSize=8;endSize=8;exitX=0.5;exitY=1;exitDx=0;exitDy=0;" edge="1" parent="1" source="R5nIYqu6_4dfiVNAs0mq-258">
          <mxGeometry width="50" height="50" relative="1" as="geometry">
            <mxPoint x="52.5" y="734.05" as="sourcePoint" />
            <mxPoint x="202" y="733.55" as="targetPoint" />
            <Array as="points">
              <mxPoint x="61.5" y="734.05" />
            </Array>
          </mxGeometry>
        </mxCell>
        <mxCell id="R5nIYqu6_4dfiVNAs0mq-261" value="&lt;span style=&quot;font-size: 11px;&quot;&gt;condition(&lt;font color=&quot;#ff0000&quot;&gt;None&lt;/font&gt;)&lt;/span&gt;" style="text;html=1;align=center;verticalAlign=middle;resizable=0;points=[];autosize=1;strokeColor=none;fillColor=none;fontSize=16;rounded=0;" vertex="1" parent="1">
          <mxGeometry x="13.5" y="596.55" width="96" height="31" as="geometry" />
        </mxCell>
        <mxCell id="R5nIYqu6_4dfiVNAs0mq-262" value="" style="endArrow=classic;html=1;rounded=0;fontSize=12;startSize=8;endSize=8;" edge="1" parent="1">
          <mxGeometry width="50" height="50" relative="1" as="geometry">
            <mxPoint x="63" y="808.05" as="sourcePoint" />
            <mxPoint x="202" y="774.05" as="targetPoint" />
            <Array as="points">
              <mxPoint x="63" y="774.05" />
            </Array>
          </mxGeometry>
        </mxCell>
        <mxCell id="R5nIYqu6_4dfiVNAs0mq-263" value="" style="shape=orEllipse;perimeter=ellipsePerimeter;whiteSpace=wrap;html=1;backgroundOutline=1;rounded=0;" vertex="1" parent="1">
          <mxGeometry x="202" y="767.05" width="17" height="16" as="geometry" />
        </mxCell>
        <mxCell id="R5nIYqu6_4dfiVNAs0mq-264" value="" style="endArrow=classic;html=1;rounded=0;fontSize=12;startSize=8;endSize=8;" edge="1" parent="1">
          <mxGeometry width="50" height="50" relative="1" as="geometry">
            <mxPoint x="210" y="742.05" as="sourcePoint" />
            <mxPoint x="210.5" y="769.05" as="targetPoint" />
          </mxGeometry>
        </mxCell>
        <mxCell id="R5nIYqu6_4dfiVNAs0mq-265" value="GNorm&amp;amp;Act&amp;amp;Drop" style="rounded=1;whiteSpace=wrap;html=1;" vertex="1" parent="1">
          <mxGeometry x="163" y="808.05" width="95" height="24" as="geometry" />
        </mxCell>
        <mxCell id="R5nIYqu6_4dfiVNAs0mq-266" value="" style="endArrow=classic;html=1;rounded=0;fontSize=12;startSize=8;endSize=8;" edge="1" parent="1">
          <mxGeometry width="50" height="50" relative="1" as="geometry">
            <mxPoint x="210" y="783.05" as="sourcePoint" />
            <mxPoint x="210.5" y="810.05" as="targetPoint" />
          </mxGeometry>
        </mxCell>
        <mxCell id="R5nIYqu6_4dfiVNAs0mq-267" value="Conv(3.3)" style="rounded=1;whiteSpace=wrap;html=1;" vertex="1" parent="1">
          <mxGeometry x="168.5" y="860.05" width="84" height="24" as="geometry" />
        </mxCell>
        <mxCell id="R5nIYqu6_4dfiVNAs0mq-268" value="" style="endArrow=classic;html=1;rounded=0;fontSize=12;startSize=8;endSize=8;" edge="1" parent="1">
          <mxGeometry width="50" height="50" relative="1" as="geometry">
            <mxPoint x="210" y="832.05" as="sourcePoint" />
            <mxPoint x="210.5" y="859.05" as="targetPoint" />
          </mxGeometry>
        </mxCell>
        <mxCell id="R5nIYqu6_4dfiVNAs0mq-269" value="Conv(1.1)" style="rounded=1;whiteSpace=wrap;html=1;" vertex="1" parent="1">
          <mxGeometry x="265.5" y="808.05" width="84" height="24" as="geometry" />
        </mxCell>
        <mxCell id="R5nIYqu6_4dfiVNAs0mq-270" value="" style="endArrow=classic;html=1;rounded=0;fontSize=12;startSize=8;endSize=8;entryX=0.5;entryY=0;entryDx=0;entryDy=0;" edge="1" parent="1" target="R5nIYqu6_4dfiVNAs0mq-269">
          <mxGeometry width="50" height="50" relative="1" as="geometry">
            <mxPoint x="305.5" y="646.05" as="sourcePoint" />
            <mxPoint x="305.5" y="704.05" as="targetPoint" />
          </mxGeometry>
        </mxCell>
        <mxCell id="R5nIYqu6_4dfiVNAs0mq-271" value="" style="shape=orEllipse;perimeter=ellipsePerimeter;whiteSpace=wrap;html=1;backgroundOutline=1;rounded=0;" vertex="1" parent="1">
          <mxGeometry x="202" y="912.05" width="17" height="16" as="geometry" />
        </mxCell>
        <mxCell id="R5nIYqu6_4dfiVNAs0mq-272" value="" style="endArrow=classic;html=1;rounded=0;fontSize=12;startSize=8;endSize=8;" edge="1" parent="1">
          <mxGeometry width="50" height="50" relative="1" as="geometry">
            <mxPoint x="210" y="884.05" as="sourcePoint" />
            <mxPoint x="210.5" y="911.05" as="targetPoint" />
          </mxGeometry>
        </mxCell>
        <mxCell id="R5nIYqu6_4dfiVNAs0mq-273" value="" style="endArrow=classic;html=1;rounded=0;fontSize=12;startSize=8;endSize=8;exitX=0.5;exitY=1;exitDx=0;exitDy=0;" edge="1" parent="1" source="R5nIYqu6_4dfiVNAs0mq-269">
          <mxGeometry width="50" height="50" relative="1" as="geometry">
            <mxPoint x="306" y="834.05" as="sourcePoint" />
            <mxPoint x="220.5" y="920.05" as="targetPoint" />
            <Array as="points">
              <mxPoint x="307.5" y="920.05" />
            </Array>
          </mxGeometry>
        </mxCell>
        <mxCell id="R5nIYqu6_4dfiVNAs0mq-274" value="may scale" style="rounded=1;whiteSpace=wrap;html=1;" vertex="1" parent="1">
          <mxGeometry x="168.5" y="956.0499999999997" width="84" height="24" as="geometry" />
        </mxCell>
        <mxCell id="R5nIYqu6_4dfiVNAs0mq-275" value="" style="endArrow=classic;html=1;rounded=0;fontSize=12;startSize=8;endSize=8;" edge="1" parent="1">
          <mxGeometry width="50" height="50" relative="1" as="geometry">
            <mxPoint x="210" y="928.05" as="sourcePoint" />
            <mxPoint x="210.5" y="955.0499999999997" as="targetPoint" />
          </mxGeometry>
        </mxCell>
        <mxCell id="R5nIYqu6_4dfiVNAs0mq-276" value="" style="endArrow=classic;html=1;rounded=0;fontSize=12;startSize=8;endSize=8;" edge="1" parent="1" target="R5nIYqu6_4dfiVNAs0mq-277">
          <mxGeometry width="50" height="50" relative="1" as="geometry">
            <mxPoint x="210" y="980.0499999999997" as="sourcePoint" />
            <mxPoint x="210.5" y="1016.0499999999997" as="targetPoint" />
          </mxGeometry>
        </mxCell>
        <mxCell id="R5nIYqu6_4dfiVNAs0mq-277" value="&lt;font style=&quot;font-size: 11px;&quot;&gt;output&lt;/font&gt;" style="text;html=1;align=center;verticalAlign=middle;resizable=0;points=[];autosize=1;strokeColor=none;fillColor=none;fontSize=16;rounded=0;" vertex="1" parent="1">
          <mxGeometry x="186" y="1034.43" width="49" height="31" as="geometry" />
        </mxCell>
        <mxCell id="R5nIYqu6_4dfiVNAs0mq-281" value="&lt;span style=&quot;font-size: 11px;&quot;&gt;&lt;font color=&quot;#ff0000&quot;&gt;(Gaussion fourier)&lt;/font&gt;&lt;/span&gt;" style="text;html=1;align=center;verticalAlign=middle;resizable=0;points=[];autosize=1;strokeColor=none;fillColor=none;fontSize=16;rounded=0;" vertex="1" parent="1">
          <mxGeometry x="12" y="890.05" width="106" height="31" as="geometry" />
        </mxCell>
        <mxCell id="R5nIYqu6_4dfiVNAs0mq-282" value="&lt;font color=&quot;#ff0000&quot;&gt;&lt;b&gt;ResBlock&lt;/b&gt;&lt;/font&gt;" style="text;html=1;align=center;verticalAlign=middle;resizable=0;points=[];autosize=1;strokeColor=none;fillColor=none;fontSize=16;" vertex="1" parent="1">
          <mxGeometry x="150" y="377.81" width="91" height="31" as="geometry" />
        </mxCell>
        <mxCell id="R5nIYqu6_4dfiVNAs0mq-297" style="edgeStyle=none;curved=1;rounded=0;orthogonalLoop=1;jettySize=auto;html=1;fontSize=12;startSize=8;endSize=8;" edge="1" parent="1" source="R5nIYqu6_4dfiVNAs0mq-290" target="R5nIYqu6_4dfiVNAs0mq-291">
          <mxGeometry relative="1" as="geometry" />
        </mxCell>
        <mxCell id="R5nIYqu6_4dfiVNAs0mq-290" value="&lt;span style=&quot;font-size: 18px;&quot;&gt;Resblock&lt;/span&gt;" style="rounded=1;whiteSpace=wrap;html=1;fillColor=#f8cecc;strokeColor=#b85450;" vertex="1" parent="1">
          <mxGeometry x="-1020.5500000000002" y="2482.5" width="115.11" height="35" as="geometry" />
        </mxCell>
        <mxCell id="R5nIYqu6_4dfiVNAs0mq-298" style="edgeStyle=none;curved=1;rounded=0;orthogonalLoop=1;jettySize=auto;html=1;fontSize=12;startSize=8;endSize=8;" edge="1" parent="1" source="R5nIYqu6_4dfiVNAs0mq-291" target="R5nIYqu6_4dfiVNAs0mq-293">
          <mxGeometry relative="1" as="geometry" />
        </mxCell>
        <mxCell id="R5nIYqu6_4dfiVNAs0mq-291" value="&lt;b&gt;&lt;font style=&quot;font-size: 18px;&quot;&gt;MCM&lt;/font&gt;&lt;/b&gt;" style="rounded=1;whiteSpace=wrap;html=1;fillColor=#1ba1e2;fontColor=#ffffff;strokeColor=#006EAF;" vertex="1" parent="1">
          <mxGeometry x="-1020.5500000000002" y="2554" width="115.11" height="69" as="geometry" />
        </mxCell>
        <mxCell id="R5nIYqu6_4dfiVNAs0mq-300" style="edgeStyle=none;curved=1;rounded=0;orthogonalLoop=1;jettySize=auto;html=1;entryX=0.5;entryY=0;entryDx=0;entryDy=0;fontSize=12;startSize=8;endSize=8;" edge="1" parent="1" source="R5nIYqu6_4dfiVNAs0mq-292" target="R5nIYqu6_4dfiVNAs0mq-294">
          <mxGeometry relative="1" as="geometry" />
        </mxCell>
        <mxCell id="R5nIYqu6_4dfiVNAs0mq-292" value="&lt;span style=&quot;font-size: 18px;&quot;&gt;TMT&lt;/span&gt;" style="rounded=1;whiteSpace=wrap;html=1;fillColor=#60a917;fontColor=#ffffff;strokeColor=#2D7600;" vertex="1" parent="1">
          <mxGeometry x="-1020.5500000000002" y="2722.5" width="115.11" height="69" as="geometry" />
        </mxCell>
        <mxCell id="R5nIYqu6_4dfiVNAs0mq-299" style="edgeStyle=none;curved=1;rounded=0;orthogonalLoop=1;jettySize=auto;html=1;fontSize=12;startSize=8;endSize=8;" edge="1" parent="1" source="R5nIYqu6_4dfiVNAs0mq-293" target="R5nIYqu6_4dfiVNAs0mq-292">
          <mxGeometry relative="1" as="geometry" />
        </mxCell>
        <mxCell id="R5nIYqu6_4dfiVNAs0mq-293" value="&lt;span style=&quot;font-size: 18px;&quot;&gt;Resblock&lt;/span&gt;" style="rounded=1;whiteSpace=wrap;html=1;fillColor=#f8cecc;strokeColor=#b85450;" vertex="1" parent="1">
          <mxGeometry x="-1020.5500000000002" y="2658" width="115.11" height="35" as="geometry" />
        </mxCell>
        <mxCell id="R5nIYqu6_4dfiVNAs0mq-301" style="edgeStyle=none;curved=1;rounded=0;orthogonalLoop=1;jettySize=auto;html=1;fontSize=12;startSize=8;endSize=8;entryX=0.5;entryY=0;entryDx=0;entryDy=0;" edge="1" parent="1" source="R5nIYqu6_4dfiVNAs0mq-294" target="R5nIYqu6_4dfiVNAs0mq-308">
          <mxGeometry relative="1" as="geometry">
            <mxPoint x="-962.9950000000003" y="2923.4480514526367" as="targetPoint" />
          </mxGeometry>
        </mxCell>
        <mxCell id="R5nIYqu6_4dfiVNAs0mq-294" value="&lt;span style=&quot;font-size: 18px;&quot;&gt;Resblock&lt;/span&gt;" style="rounded=1;whiteSpace=wrap;html=1;fillColor=#f8cecc;strokeColor=#b85450;" vertex="1" parent="1">
          <mxGeometry x="-1020.5500000000002" y="2822" width="115.11" height="35" as="geometry" />
        </mxCell>
        <mxCell id="R5nIYqu6_4dfiVNAs0mq-302" value="&lt;font style=&quot;font-size: 18px;&quot; color=&quot;#ff0000&quot;&gt;Down&lt;/font&gt;" style="text;html=1;align=center;verticalAlign=middle;resizable=0;points=[];autosize=1;strokeColor=none;fillColor=none;" vertex="1" parent="1">
          <mxGeometry x="-905.44" y="2823" width="64" height="34" as="geometry" />
        </mxCell>
        <mxCell id="R5nIYqu6_4dfiVNAs0mq-307" style="edgeStyle=none;curved=1;rounded=0;orthogonalLoop=1;jettySize=auto;html=1;fontSize=12;startSize=8;endSize=8;" edge="1" parent="1" source="R5nIYqu6_4dfiVNAs0mq-308" target="R5nIYqu6_4dfiVNAs0mq-310">
          <mxGeometry relative="1" as="geometry" />
        </mxCell>
        <mxCell id="R5nIYqu6_4dfiVNAs0mq-308" value="&lt;span style=&quot;font-size: 18px;&quot;&gt;Resblock&lt;/span&gt;" style="rounded=1;whiteSpace=wrap;html=1;fillColor=#f8cecc;strokeColor=#b85450;" vertex="1" parent="1">
          <mxGeometry x="-813.0500000000002" y="3031.5" width="115.11" height="35" as="geometry" />
        </mxCell>
        <mxCell id="R5nIYqu6_4dfiVNAs0mq-309" style="edgeStyle=none;curved=1;rounded=0;orthogonalLoop=1;jettySize=auto;html=1;fontSize=12;startSize=8;endSize=8;" edge="1" parent="1" source="R5nIYqu6_4dfiVNAs0mq-310" target="R5nIYqu6_4dfiVNAs0mq-314">
          <mxGeometry relative="1" as="geometry" />
        </mxCell>
        <mxCell id="R5nIYqu6_4dfiVNAs0mq-310" value="&lt;b&gt;&lt;font style=&quot;font-size: 18px;&quot;&gt;MCM&lt;/font&gt;&lt;/b&gt;" style="rounded=1;whiteSpace=wrap;html=1;fillColor=#1ba1e2;fontColor=#ffffff;strokeColor=#006EAF;" vertex="1" parent="1">
          <mxGeometry x="-813.0500000000002" y="3103" width="115.11" height="69" as="geometry" />
        </mxCell>
        <mxCell id="R5nIYqu6_4dfiVNAs0mq-311" style="edgeStyle=none;curved=1;rounded=0;orthogonalLoop=1;jettySize=auto;html=1;entryX=0.5;entryY=0;entryDx=0;entryDy=0;fontSize=12;startSize=8;endSize=8;" edge="1" parent="1" source="R5nIYqu6_4dfiVNAs0mq-312" target="R5nIYqu6_4dfiVNAs0mq-316">
          <mxGeometry relative="1" as="geometry" />
        </mxCell>
        <mxCell id="R5nIYqu6_4dfiVNAs0mq-312" value="&lt;span style=&quot;font-size: 18px;&quot;&gt;TMT&lt;/span&gt;" style="rounded=1;whiteSpace=wrap;html=1;fillColor=#60a917;fontColor=#ffffff;strokeColor=#2D7600;" vertex="1" parent="1">
          <mxGeometry x="-813.0500000000002" y="3271.5" width="115.11" height="69" as="geometry" />
        </mxCell>
        <mxCell id="R5nIYqu6_4dfiVNAs0mq-313" style="edgeStyle=none;curved=1;rounded=0;orthogonalLoop=1;jettySize=auto;html=1;fontSize=12;startSize=8;endSize=8;" edge="1" parent="1" source="R5nIYqu6_4dfiVNAs0mq-314" target="R5nIYqu6_4dfiVNAs0mq-312">
          <mxGeometry relative="1" as="geometry" />
        </mxCell>
        <mxCell id="R5nIYqu6_4dfiVNAs0mq-314" value="&lt;span style=&quot;font-size: 18px;&quot;&gt;Resblock&lt;/span&gt;" style="rounded=1;whiteSpace=wrap;html=1;fillColor=#f8cecc;strokeColor=#b85450;" vertex="1" parent="1">
          <mxGeometry x="-813.0500000000002" y="3207" width="115.11" height="35" as="geometry" />
        </mxCell>
        <mxCell id="R5nIYqu6_4dfiVNAs0mq-315" style="edgeStyle=none;curved=1;rounded=0;orthogonalLoop=1;jettySize=auto;html=1;fontSize=12;startSize=8;endSize=8;entryX=0.5;entryY=0;entryDx=0;entryDy=0;" edge="1" parent="1" source="R5nIYqu6_4dfiVNAs0mq-316" target="R5nIYqu6_4dfiVNAs0mq-320">
          <mxGeometry relative="1" as="geometry">
            <mxPoint x="-755.4950000000003" y="3472.4480514526367" as="targetPoint" />
          </mxGeometry>
        </mxCell>
        <mxCell id="R5nIYqu6_4dfiVNAs0mq-316" value="&lt;span style=&quot;font-size: 18px;&quot;&gt;Resblock&lt;/span&gt;" style="rounded=1;whiteSpace=wrap;html=1;fillColor=#f8cecc;strokeColor=#b85450;" vertex="1" parent="1">
          <mxGeometry x="-813.0500000000002" y="3371" width="115.11" height="35" as="geometry" />
        </mxCell>
        <mxCell id="R5nIYqu6_4dfiVNAs0mq-317" value="&lt;font style=&quot;font-size: 18px;&quot; color=&quot;#ff0000&quot;&gt;Down&lt;/font&gt;" style="text;html=1;align=center;verticalAlign=middle;resizable=0;points=[];autosize=1;strokeColor=none;fillColor=none;" vertex="1" parent="1">
          <mxGeometry x="-697.94" y="3372" width="64" height="34" as="geometry" />
        </mxCell>
        <mxCell id="R5nIYqu6_4dfiVNAs0mq-319" style="edgeStyle=none;curved=1;rounded=0;orthogonalLoop=1;jettySize=auto;html=1;fontSize=12;startSize=8;endSize=8;" edge="1" parent="1" source="R5nIYqu6_4dfiVNAs0mq-320" target="R5nIYqu6_4dfiVNAs0mq-322">
          <mxGeometry relative="1" as="geometry" />
        </mxCell>
        <mxCell id="R5nIYqu6_4dfiVNAs0mq-320" value="&lt;span style=&quot;font-size: 18px;&quot;&gt;Resblock&lt;/span&gt;" style="rounded=1;whiteSpace=wrap;html=1;fillColor=#f8cecc;strokeColor=#b85450;" vertex="1" parent="1">
          <mxGeometry x="-587.5500000000002" y="3580.5" width="115.11" height="35" as="geometry" />
        </mxCell>
        <mxCell id="R5nIYqu6_4dfiVNAs0mq-321" style="edgeStyle=none;curved=1;rounded=0;orthogonalLoop=1;jettySize=auto;html=1;fontSize=12;startSize=8;endSize=8;" edge="1" parent="1" source="R5nIYqu6_4dfiVNAs0mq-322" target="R5nIYqu6_4dfiVNAs0mq-326">
          <mxGeometry relative="1" as="geometry" />
        </mxCell>
        <mxCell id="R5nIYqu6_4dfiVNAs0mq-322" value="&lt;b&gt;&lt;font style=&quot;font-size: 18px;&quot;&gt;MCM&lt;/font&gt;&lt;/b&gt;" style="rounded=1;whiteSpace=wrap;html=1;fillColor=#1ba1e2;fontColor=#ffffff;strokeColor=#006EAF;" vertex="1" parent="1">
          <mxGeometry x="-587.5500000000002" y="3652" width="115.11" height="69" as="geometry" />
        </mxCell>
        <mxCell id="R5nIYqu6_4dfiVNAs0mq-323" style="edgeStyle=none;curved=1;rounded=0;orthogonalLoop=1;jettySize=auto;html=1;entryX=0.5;entryY=0;entryDx=0;entryDy=0;fontSize=12;startSize=8;endSize=8;" edge="1" parent="1" source="R5nIYqu6_4dfiVNAs0mq-324" target="R5nIYqu6_4dfiVNAs0mq-328">
          <mxGeometry relative="1" as="geometry" />
        </mxCell>
        <mxCell id="R5nIYqu6_4dfiVNAs0mq-324" value="&lt;span style=&quot;font-size: 18px;&quot;&gt;TMT&lt;/span&gt;" style="rounded=1;whiteSpace=wrap;html=1;fillColor=#60a917;fontColor=#ffffff;strokeColor=#2D7600;" vertex="1" parent="1">
          <mxGeometry x="-587.5500000000002" y="3820.5" width="115.11" height="69" as="geometry" />
        </mxCell>
        <mxCell id="R5nIYqu6_4dfiVNAs0mq-325" style="edgeStyle=none;curved=1;rounded=0;orthogonalLoop=1;jettySize=auto;html=1;fontSize=12;startSize=8;endSize=8;" edge="1" parent="1" source="R5nIYqu6_4dfiVNAs0mq-326" target="R5nIYqu6_4dfiVNAs0mq-324">
          <mxGeometry relative="1" as="geometry" />
        </mxCell>
        <mxCell id="R5nIYqu6_4dfiVNAs0mq-326" value="&lt;span style=&quot;font-size: 18px;&quot;&gt;Resblock&lt;/span&gt;" style="rounded=1;whiteSpace=wrap;html=1;fillColor=#f8cecc;strokeColor=#b85450;" vertex="1" parent="1">
          <mxGeometry x="-587.5500000000002" y="3756" width="115.11" height="35" as="geometry" />
        </mxCell>
        <mxCell id="R5nIYqu6_4dfiVNAs0mq-327" style="edgeStyle=none;curved=1;rounded=0;orthogonalLoop=1;jettySize=auto;html=1;fontSize=12;startSize=8;endSize=8;entryX=0.5;entryY=0;entryDx=0;entryDy=0;" edge="1" parent="1" source="R5nIYqu6_4dfiVNAs0mq-328" target="R5nIYqu6_4dfiVNAs0mq-332">
          <mxGeometry relative="1" as="geometry">
            <mxPoint x="-529.9950000000003" y="4021.4480514526367" as="targetPoint" />
          </mxGeometry>
        </mxCell>
        <mxCell id="R5nIYqu6_4dfiVNAs0mq-328" value="&lt;span style=&quot;font-size: 18px;&quot;&gt;Resblock&lt;/span&gt;" style="rounded=1;whiteSpace=wrap;html=1;fillColor=#f8cecc;strokeColor=#b85450;" vertex="1" parent="1">
          <mxGeometry x="-587.5500000000002" y="3920" width="115.11" height="35" as="geometry" />
        </mxCell>
        <mxCell id="R5nIYqu6_4dfiVNAs0mq-329" value="&lt;font style=&quot;font-size: 18px;&quot; color=&quot;#ff0000&quot;&gt;Down&lt;/font&gt;" style="text;html=1;align=center;verticalAlign=middle;resizable=0;points=[];autosize=1;strokeColor=none;fillColor=none;" vertex="1" parent="1">
          <mxGeometry x="-472.44000000000005" y="3921" width="64" height="34" as="geometry" />
        </mxCell>
        <mxCell id="R5nIYqu6_4dfiVNAs0mq-331" style="edgeStyle=none;curved=1;rounded=0;orthogonalLoop=1;jettySize=auto;html=1;fontSize=12;startSize=8;endSize=8;" edge="1" parent="1" source="R5nIYqu6_4dfiVNAs0mq-332" target="R5nIYqu6_4dfiVNAs0mq-334">
          <mxGeometry relative="1" as="geometry" />
        </mxCell>
        <mxCell id="R5nIYqu6_4dfiVNAs0mq-332" value="&lt;span style=&quot;font-size: 18px;&quot;&gt;Resblock&lt;/span&gt;" style="rounded=1;whiteSpace=wrap;html=1;fillColor=#f8cecc;strokeColor=#b85450;" vertex="1" parent="1">
          <mxGeometry x="-365.0500000000002" y="4137.5" width="115.11" height="35" as="geometry" />
        </mxCell>
        <mxCell id="R5nIYqu6_4dfiVNAs0mq-333" style="edgeStyle=none;curved=1;rounded=0;orthogonalLoop=1;jettySize=auto;html=1;fontSize=12;startSize=8;endSize=8;" edge="1" parent="1" source="R5nIYqu6_4dfiVNAs0mq-334" target="R5nIYqu6_4dfiVNAs0mq-338">
          <mxGeometry relative="1" as="geometry" />
        </mxCell>
        <mxCell id="R5nIYqu6_4dfiVNAs0mq-334" value="&lt;b&gt;&lt;font style=&quot;font-size: 18px;&quot;&gt;MCM&lt;/font&gt;&lt;/b&gt;" style="rounded=1;whiteSpace=wrap;html=1;fillColor=#1ba1e2;fontColor=#ffffff;strokeColor=#006EAF;" vertex="1" parent="1">
          <mxGeometry x="-365.0500000000002" y="4209" width="115.11" height="69" as="geometry" />
        </mxCell>
        <mxCell id="R5nIYqu6_4dfiVNAs0mq-335" style="edgeStyle=none;curved=0;rounded=1;orthogonalLoop=1;jettySize=auto;html=1;fontSize=12;startSize=8;endSize=8;entryX=0;entryY=0.5;entryDx=0;entryDy=0;" edge="1" parent="1" source="R5nIYqu6_4dfiVNAs0mq-336" target="R5nIYqu6_4dfiVNAs0mq-343">
          <mxGeometry relative="1" as="geometry">
            <mxPoint x="-307" y="4542" as="targetPoint" />
            <Array as="points">
              <mxPoint x="-307" y="4670" />
            </Array>
          </mxGeometry>
        </mxCell>
        <mxCell id="R5nIYqu6_4dfiVNAs0mq-336" value="&lt;span style=&quot;font-size: 18px;&quot;&gt;TMT&lt;/span&gt;" style="rounded=1;whiteSpace=wrap;html=1;fillColor=#60a917;fontColor=#ffffff;strokeColor=#2D7600;" vertex="1" parent="1">
          <mxGeometry x="-365.0500000000002" y="4377.5" width="115.11" height="69" as="geometry" />
        </mxCell>
        <mxCell id="R5nIYqu6_4dfiVNAs0mq-337" style="edgeStyle=none;curved=1;rounded=0;orthogonalLoop=1;jettySize=auto;html=1;fontSize=12;startSize=8;endSize=8;" edge="1" parent="1" source="R5nIYqu6_4dfiVNAs0mq-338" target="R5nIYqu6_4dfiVNAs0mq-336">
          <mxGeometry relative="1" as="geometry" />
        </mxCell>
        <mxCell id="R5nIYqu6_4dfiVNAs0mq-338" value="&lt;span style=&quot;font-size: 18px;&quot;&gt;Resblock&lt;/span&gt;" style="rounded=1;whiteSpace=wrap;html=1;fillColor=#f8cecc;strokeColor=#b85450;" vertex="1" parent="1">
          <mxGeometry x="-365.0500000000002" y="4313" width="115.11" height="35" as="geometry" />
        </mxCell>
        <mxCell id="R5nIYqu6_4dfiVNAs0mq-347" style="edgeStyle=none;curved=1;rounded=0;orthogonalLoop=1;jettySize=auto;html=1;entryX=0;entryY=0.5;entryDx=0;entryDy=0;fontSize=12;startSize=8;endSize=8;" edge="1" parent="1" source="R5nIYqu6_4dfiVNAs0mq-343" target="R5nIYqu6_4dfiVNAs0mq-344">
          <mxGeometry relative="1" as="geometry" />
        </mxCell>
        <mxCell id="R5nIYqu6_4dfiVNAs0mq-343" value="&lt;span style=&quot;font-size: 18px;&quot;&gt;Resblock&lt;/span&gt;" style="rounded=1;whiteSpace=wrap;html=1;fillColor=#f8cecc;strokeColor=#b85450;" vertex="1" parent="1">
          <mxGeometry x="12.939999999999998" y="4643" width="115.11" height="45" as="geometry" />
        </mxCell>
        <mxCell id="R5nIYqu6_4dfiVNAs0mq-348" style="edgeStyle=none;curved=1;rounded=0;orthogonalLoop=1;jettySize=auto;html=1;entryX=0;entryY=0.5;entryDx=0;entryDy=0;fontSize=12;startSize=8;endSize=8;" edge="1" parent="1" source="R5nIYqu6_4dfiVNAs0mq-344" target="R5nIYqu6_4dfiVNAs0mq-346">
          <mxGeometry relative="1" as="geometry" />
        </mxCell>
        <mxCell id="R5nIYqu6_4dfiVNAs0mq-344" value="&lt;b&gt;&lt;font style=&quot;font-size: 18px;&quot;&gt;MCM&lt;/font&gt;&lt;/b&gt;" style="rounded=1;whiteSpace=wrap;html=1;fillColor=#1ba1e2;fontColor=#ffffff;strokeColor=#006EAF;" vertex="1" parent="1">
          <mxGeometry x="161" y="4631" width="115.11" height="69" as="geometry" />
        </mxCell>
        <mxCell id="R5nIYqu6_4dfiVNAs0mq-403" style="edgeStyle=none;curved=0;rounded=1;orthogonalLoop=1;jettySize=auto;html=1;exitX=1;exitY=0.5;exitDx=0;exitDy=0;entryX=0.5;entryY=1;entryDx=0;entryDy=0;fontSize=12;startSize=8;endSize=8;" edge="1" parent="1" source="R5nIYqu6_4dfiVNAs0mq-346" target="R5nIYqu6_4dfiVNAs0mq-359">
          <mxGeometry relative="1" as="geometry">
            <Array as="points">
              <mxPoint x="744" y="4662" />
            </Array>
          </mxGeometry>
        </mxCell>
        <mxCell id="R5nIYqu6_4dfiVNAs0mq-346" value="&lt;span style=&quot;font-size: 18px;&quot;&gt;Resblock&lt;/span&gt;" style="rounded=1;whiteSpace=wrap;html=1;fillColor=#f8cecc;strokeColor=#b85450;" vertex="1" parent="1">
          <mxGeometry x="305" y="4648" width="115.11" height="35" as="geometry" />
        </mxCell>
        <mxCell id="R5nIYqu6_4dfiVNAs0mq-412" style="edgeStyle=none;curved=1;rounded=0;orthogonalLoop=1;jettySize=auto;html=1;exitX=0.5;exitY=0;exitDx=0;exitDy=0;entryX=0.5;entryY=1;entryDx=0;entryDy=0;fontSize=12;startSize=8;endSize=8;" edge="1" parent="1" source="R5nIYqu6_4dfiVNAs0mq-351" target="R5nIYqu6_4dfiVNAs0mq-366">
          <mxGeometry relative="1" as="geometry" />
        </mxCell>
        <mxCell id="R5nIYqu6_4dfiVNAs0mq-351" value="&lt;span style=&quot;font-size: 18px;&quot;&gt;Resblock&lt;/span&gt;" style="rounded=1;whiteSpace=wrap;html=1;fillColor=#f8cecc;strokeColor=#b85450;" vertex="1" parent="1">
          <mxGeometry x="685.9499999999998" y="4137.5" width="115.11" height="35" as="geometry" />
        </mxCell>
        <mxCell id="R5nIYqu6_4dfiVNAs0mq-382" style="edgeStyle=none;curved=1;rounded=0;orthogonalLoop=1;jettySize=auto;html=1;exitX=0.5;exitY=0;exitDx=0;exitDy=0;entryX=0.5;entryY=1;entryDx=0;entryDy=0;fontSize=12;startSize=8;endSize=8;" edge="1" parent="1" source="R5nIYqu6_4dfiVNAs0mq-353" target="R5nIYqu6_4dfiVNAs0mq-351">
          <mxGeometry relative="1" as="geometry" />
        </mxCell>
        <mxCell id="R5nIYqu6_4dfiVNAs0mq-353" value="&lt;b&gt;&lt;font style=&quot;font-size: 18px;&quot;&gt;MCM&lt;/font&gt;&lt;/b&gt;" style="rounded=1;whiteSpace=wrap;html=1;fillColor=#1ba1e2;fontColor=#ffffff;strokeColor=#006EAF;" vertex="1" parent="1">
          <mxGeometry x="685.9499999999998" y="4209" width="115.11" height="69" as="geometry" />
        </mxCell>
        <mxCell id="R5nIYqu6_4dfiVNAs0mq-381" style="edgeStyle=none;curved=1;rounded=0;orthogonalLoop=1;jettySize=auto;html=1;exitX=0.5;exitY=0;exitDx=0;exitDy=0;entryX=0.5;entryY=1;entryDx=0;entryDy=0;fontSize=12;startSize=8;endSize=8;" edge="1" parent="1" source="R5nIYqu6_4dfiVNAs0mq-357" target="R5nIYqu6_4dfiVNAs0mq-353">
          <mxGeometry relative="1" as="geometry" />
        </mxCell>
        <mxCell id="R5nIYqu6_4dfiVNAs0mq-357" value="&lt;span style=&quot;font-size: 18px;&quot;&gt;Resblock&lt;/span&gt;" style="rounded=1;whiteSpace=wrap;html=1;fillColor=#f8cecc;strokeColor=#b85450;" vertex="1" parent="1">
          <mxGeometry x="685.9499999999998" y="4313" width="115.11" height="35" as="geometry" />
        </mxCell>
        <mxCell id="R5nIYqu6_4dfiVNAs0mq-380" style="edgeStyle=none;curved=1;rounded=0;orthogonalLoop=1;jettySize=auto;html=1;exitX=0.5;exitY=0;exitDx=0;exitDy=0;entryX=0.5;entryY=1;entryDx=0;entryDy=0;fontSize=12;startSize=8;endSize=8;" edge="1" parent="1" source="R5nIYqu6_4dfiVNAs0mq-358" target="R5nIYqu6_4dfiVNAs0mq-357">
          <mxGeometry relative="1" as="geometry" />
        </mxCell>
        <mxCell id="R5nIYqu6_4dfiVNAs0mq-358" value="&lt;span style=&quot;font-size: 18px;&quot;&gt;Resblock&lt;/span&gt;" style="rounded=1;whiteSpace=wrap;html=1;fillColor=#f8cecc;strokeColor=#b85450;" vertex="1" parent="1">
          <mxGeometry x="685.95" y="4377.5" width="115.11" height="35" as="geometry" />
        </mxCell>
        <mxCell id="R5nIYqu6_4dfiVNAs0mq-379" style="edgeStyle=none;curved=1;rounded=0;orthogonalLoop=1;jettySize=auto;html=1;exitX=0.5;exitY=0;exitDx=0;exitDy=0;entryX=0.5;entryY=1;entryDx=0;entryDy=0;fontSize=12;startSize=8;endSize=8;" edge="1" parent="1" source="R5nIYqu6_4dfiVNAs0mq-359" target="R5nIYqu6_4dfiVNAs0mq-358">
          <mxGeometry relative="1" as="geometry" />
        </mxCell>
        <mxCell id="R5nIYqu6_4dfiVNAs0mq-359" value="&lt;span style=&quot;font-size: 18px;&quot;&gt;Resblock&lt;/span&gt;" style="rounded=1;whiteSpace=wrap;html=1;fillColor=#f8cecc;strokeColor=#b85450;" vertex="1" parent="1">
          <mxGeometry x="685.95" y="4442" width="115.11" height="35" as="geometry" />
        </mxCell>
        <mxCell id="R5nIYqu6_4dfiVNAs0mq-413" style="edgeStyle=none;curved=1;rounded=0;orthogonalLoop=1;jettySize=auto;html=1;exitX=0.5;exitY=0;exitDx=0;exitDy=0;entryX=0.5;entryY=1;entryDx=0;entryDy=0;fontSize=12;startSize=8;endSize=8;" edge="1" parent="1" source="R5nIYqu6_4dfiVNAs0mq-362" target="R5nIYqu6_4dfiVNAs0mq-372">
          <mxGeometry relative="1" as="geometry" />
        </mxCell>
        <mxCell id="R5nIYqu6_4dfiVNAs0mq-362" value="&lt;span style=&quot;font-size: 18px;&quot;&gt;Resblock&lt;/span&gt;" style="rounded=1;whiteSpace=wrap;html=1;fillColor=#f8cecc;strokeColor=#b85450;" vertex="1" parent="1">
          <mxGeometry x="891.9499999999998" y="3580.5" width="115.11" height="35" as="geometry" />
        </mxCell>
        <mxCell id="R5nIYqu6_4dfiVNAs0mq-386" style="edgeStyle=none;curved=1;rounded=0;orthogonalLoop=1;jettySize=auto;html=1;exitX=0.5;exitY=0;exitDx=0;exitDy=0;entryX=0.5;entryY=1;entryDx=0;entryDy=0;fontSize=12;startSize=8;endSize=8;" edge="1" parent="1" source="R5nIYqu6_4dfiVNAs0mq-363" target="R5nIYqu6_4dfiVNAs0mq-362">
          <mxGeometry relative="1" as="geometry" />
        </mxCell>
        <mxCell id="R5nIYqu6_4dfiVNAs0mq-363" value="&lt;b&gt;&lt;font style=&quot;font-size: 18px;&quot;&gt;MCM&lt;/font&gt;&lt;/b&gt;" style="rounded=1;whiteSpace=wrap;html=1;fillColor=#1ba1e2;fontColor=#ffffff;strokeColor=#006EAF;" vertex="1" parent="1">
          <mxGeometry x="891.9499999999998" y="3652" width="115.11" height="69" as="geometry" />
        </mxCell>
        <mxCell id="R5nIYqu6_4dfiVNAs0mq-385" style="edgeStyle=none;curved=1;rounded=0;orthogonalLoop=1;jettySize=auto;html=1;exitX=0.5;exitY=0;exitDx=0;exitDy=0;entryX=0.5;entryY=1;entryDx=0;entryDy=0;fontSize=12;startSize=8;endSize=8;" edge="1" parent="1" source="R5nIYqu6_4dfiVNAs0mq-364" target="R5nIYqu6_4dfiVNAs0mq-363">
          <mxGeometry relative="1" as="geometry" />
        </mxCell>
        <mxCell id="R5nIYqu6_4dfiVNAs0mq-364" value="&lt;span style=&quot;font-size: 18px;&quot;&gt;Resblock&lt;/span&gt;" style="rounded=1;whiteSpace=wrap;html=1;fillColor=#f8cecc;strokeColor=#b85450;" vertex="1" parent="1">
          <mxGeometry x="891.9499999999998" y="3756" width="115.11" height="35" as="geometry" />
        </mxCell>
        <mxCell id="R5nIYqu6_4dfiVNAs0mq-384" style="edgeStyle=none;curved=1;rounded=0;orthogonalLoop=1;jettySize=auto;html=1;exitX=0.5;exitY=0;exitDx=0;exitDy=0;entryX=0.5;entryY=1;entryDx=0;entryDy=0;fontSize=12;startSize=8;endSize=8;" edge="1" parent="1" source="R5nIYqu6_4dfiVNAs0mq-365" target="R5nIYqu6_4dfiVNAs0mq-364">
          <mxGeometry relative="1" as="geometry" />
        </mxCell>
        <mxCell id="R5nIYqu6_4dfiVNAs0mq-365" value="&lt;span style=&quot;font-size: 18px;&quot;&gt;Resblock&lt;/span&gt;" style="rounded=1;whiteSpace=wrap;html=1;fillColor=#f8cecc;strokeColor=#b85450;" vertex="1" parent="1">
          <mxGeometry x="891.95" y="3820.5" width="115.11" height="35" as="geometry" />
        </mxCell>
        <mxCell id="R5nIYqu6_4dfiVNAs0mq-383" style="edgeStyle=none;curved=1;rounded=0;orthogonalLoop=1;jettySize=auto;html=1;exitX=0.5;exitY=0;exitDx=0;exitDy=0;entryX=0.5;entryY=1;entryDx=0;entryDy=0;fontSize=12;startSize=8;endSize=8;" edge="1" parent="1" source="R5nIYqu6_4dfiVNAs0mq-366" target="R5nIYqu6_4dfiVNAs0mq-365">
          <mxGeometry relative="1" as="geometry" />
        </mxCell>
        <mxCell id="R5nIYqu6_4dfiVNAs0mq-366" value="&lt;span style=&quot;font-size: 18px;&quot;&gt;Resblock&lt;/span&gt;" style="rounded=1;whiteSpace=wrap;html=1;fillColor=#f8cecc;strokeColor=#b85450;" vertex="1" parent="1">
          <mxGeometry x="891.95" y="3885" width="115.11" height="35" as="geometry" />
        </mxCell>
        <mxCell id="R5nIYqu6_4dfiVNAs0mq-414" style="edgeStyle=none;curved=1;rounded=0;orthogonalLoop=1;jettySize=auto;html=1;exitX=0.5;exitY=0;exitDx=0;exitDy=0;entryX=0.5;entryY=1;entryDx=0;entryDy=0;fontSize=12;startSize=8;endSize=8;" edge="1" parent="1" source="R5nIYqu6_4dfiVNAs0mq-368" target="R5nIYqu6_4dfiVNAs0mq-378">
          <mxGeometry relative="1" as="geometry" />
        </mxCell>
        <mxCell id="R5nIYqu6_4dfiVNAs0mq-368" value="&lt;span style=&quot;font-size: 18px;&quot;&gt;Resblock&lt;/span&gt;" style="rounded=1;whiteSpace=wrap;html=1;fillColor=#f8cecc;strokeColor=#b85450;" vertex="1" parent="1">
          <mxGeometry x="1105.9499999999998" y="3027.5" width="115.11" height="35" as="geometry" />
        </mxCell>
        <mxCell id="R5nIYqu6_4dfiVNAs0mq-390" style="edgeStyle=none;curved=1;rounded=0;orthogonalLoop=1;jettySize=auto;html=1;exitX=0.5;exitY=0;exitDx=0;exitDy=0;entryX=0.5;entryY=1;entryDx=0;entryDy=0;fontSize=12;startSize=8;endSize=8;" edge="1" parent="1" source="R5nIYqu6_4dfiVNAs0mq-369" target="R5nIYqu6_4dfiVNAs0mq-368">
          <mxGeometry relative="1" as="geometry" />
        </mxCell>
        <mxCell id="R5nIYqu6_4dfiVNAs0mq-369" value="&lt;b&gt;&lt;font style=&quot;font-size: 18px;&quot;&gt;MCM&lt;/font&gt;&lt;/b&gt;" style="rounded=1;whiteSpace=wrap;html=1;fillColor=#1ba1e2;fontColor=#ffffff;strokeColor=#006EAF;" vertex="1" parent="1">
          <mxGeometry x="1105.9499999999998" y="3099" width="115.11" height="69" as="geometry" />
        </mxCell>
        <mxCell id="R5nIYqu6_4dfiVNAs0mq-389" style="edgeStyle=none;curved=1;rounded=0;orthogonalLoop=1;jettySize=auto;html=1;exitX=0.5;exitY=0;exitDx=0;exitDy=0;entryX=0.5;entryY=1;entryDx=0;entryDy=0;fontSize=12;startSize=8;endSize=8;" edge="1" parent="1" source="R5nIYqu6_4dfiVNAs0mq-370" target="R5nIYqu6_4dfiVNAs0mq-369">
          <mxGeometry relative="1" as="geometry" />
        </mxCell>
        <mxCell id="R5nIYqu6_4dfiVNAs0mq-370" value="&lt;span style=&quot;font-size: 18px;&quot;&gt;Resblock&lt;/span&gt;" style="rounded=1;whiteSpace=wrap;html=1;fillColor=#f8cecc;strokeColor=#b85450;" vertex="1" parent="1">
          <mxGeometry x="1105.9499999999998" y="3203" width="115.11" height="35" as="geometry" />
        </mxCell>
        <mxCell id="R5nIYqu6_4dfiVNAs0mq-388" style="edgeStyle=none;curved=1;rounded=0;orthogonalLoop=1;jettySize=auto;html=1;exitX=0.5;exitY=0;exitDx=0;exitDy=0;entryX=0.5;entryY=1;entryDx=0;entryDy=0;fontSize=12;startSize=8;endSize=8;" edge="1" parent="1" source="R5nIYqu6_4dfiVNAs0mq-371" target="R5nIYqu6_4dfiVNAs0mq-370">
          <mxGeometry relative="1" as="geometry" />
        </mxCell>
        <mxCell id="R5nIYqu6_4dfiVNAs0mq-371" value="&lt;span style=&quot;font-size: 18px;&quot;&gt;Resblock&lt;/span&gt;" style="rounded=1;whiteSpace=wrap;html=1;fillColor=#f8cecc;strokeColor=#b85450;" vertex="1" parent="1">
          <mxGeometry x="1105.95" y="3267.5" width="115.11" height="35" as="geometry" />
        </mxCell>
        <mxCell id="R5nIYqu6_4dfiVNAs0mq-387" style="edgeStyle=none;curved=1;rounded=0;orthogonalLoop=1;jettySize=auto;html=1;exitX=0.5;exitY=0;exitDx=0;exitDy=0;entryX=0.5;entryY=1;entryDx=0;entryDy=0;fontSize=12;startSize=8;endSize=8;" edge="1" parent="1" source="R5nIYqu6_4dfiVNAs0mq-372" target="R5nIYqu6_4dfiVNAs0mq-371">
          <mxGeometry relative="1" as="geometry" />
        </mxCell>
        <mxCell id="R5nIYqu6_4dfiVNAs0mq-372" value="&lt;span style=&quot;font-size: 18px;&quot;&gt;Resblock&lt;/span&gt;" style="rounded=1;whiteSpace=wrap;html=1;fillColor=#f8cecc;strokeColor=#b85450;" vertex="1" parent="1">
          <mxGeometry x="1105.95" y="3332" width="115.11" height="35" as="geometry" />
        </mxCell>
        <mxCell id="R5nIYqu6_4dfiVNAs0mq-394" style="edgeStyle=none;curved=1;rounded=0;orthogonalLoop=1;jettySize=auto;html=1;exitX=0.5;exitY=0;exitDx=0;exitDy=0;entryX=0.5;entryY=1;entryDx=0;entryDy=0;fontSize=12;startSize=8;endSize=8;" edge="1" parent="1" source="R5nIYqu6_4dfiVNAs0mq-375" target="R5nIYqu6_4dfiVNAs0mq-397">
          <mxGeometry relative="1" as="geometry">
            <mxPoint x="1383.505" y="2512.5" as="targetPoint" />
          </mxGeometry>
        </mxCell>
        <mxCell id="R5nIYqu6_4dfiVNAs0mq-375" value="&lt;b&gt;&lt;font style=&quot;font-size: 18px;&quot;&gt;MCM&lt;/font&gt;&lt;/b&gt;" style="rounded=1;whiteSpace=wrap;html=1;fillColor=#1ba1e2;fontColor=#ffffff;strokeColor=#006EAF;" vertex="1" parent="1">
          <mxGeometry x="1325.9499999999998" y="2549" width="115.11" height="69" as="geometry" />
        </mxCell>
        <mxCell id="R5nIYqu6_4dfiVNAs0mq-393" style="edgeStyle=none;curved=1;rounded=0;orthogonalLoop=1;jettySize=auto;html=1;exitX=0.5;exitY=0;exitDx=0;exitDy=0;entryX=0.5;entryY=1;entryDx=0;entryDy=0;fontSize=12;startSize=8;endSize=8;" edge="1" parent="1" source="R5nIYqu6_4dfiVNAs0mq-376" target="R5nIYqu6_4dfiVNAs0mq-375">
          <mxGeometry relative="1" as="geometry" />
        </mxCell>
        <mxCell id="R5nIYqu6_4dfiVNAs0mq-376" value="&lt;span style=&quot;font-size: 18px;&quot;&gt;Resblock&lt;/span&gt;" style="rounded=1;whiteSpace=wrap;html=1;fillColor=#f8cecc;strokeColor=#b85450;" vertex="1" parent="1">
          <mxGeometry x="1325.9499999999998" y="2653" width="115.11" height="35" as="geometry" />
        </mxCell>
        <mxCell id="R5nIYqu6_4dfiVNAs0mq-392" style="edgeStyle=none;curved=1;rounded=0;orthogonalLoop=1;jettySize=auto;html=1;exitX=0.5;exitY=0;exitDx=0;exitDy=0;entryX=0.5;entryY=1;entryDx=0;entryDy=0;fontSize=12;startSize=8;endSize=8;" edge="1" parent="1" source="R5nIYqu6_4dfiVNAs0mq-377" target="R5nIYqu6_4dfiVNAs0mq-376">
          <mxGeometry relative="1" as="geometry" />
        </mxCell>
        <mxCell id="R5nIYqu6_4dfiVNAs0mq-377" value="&lt;span style=&quot;font-size: 18px;&quot;&gt;Resblock&lt;/span&gt;" style="rounded=1;whiteSpace=wrap;html=1;fillColor=#f8cecc;strokeColor=#b85450;" vertex="1" parent="1">
          <mxGeometry x="1325.95" y="2717.5" width="115.11" height="35" as="geometry" />
        </mxCell>
        <mxCell id="R5nIYqu6_4dfiVNAs0mq-391" style="edgeStyle=none;curved=1;rounded=0;orthogonalLoop=1;jettySize=auto;html=1;exitX=0.5;exitY=0;exitDx=0;exitDy=0;entryX=0.5;entryY=1;entryDx=0;entryDy=0;fontSize=12;startSize=8;endSize=8;" edge="1" parent="1" source="R5nIYqu6_4dfiVNAs0mq-378" target="R5nIYqu6_4dfiVNAs0mq-377">
          <mxGeometry relative="1" as="geometry" />
        </mxCell>
        <mxCell id="R5nIYqu6_4dfiVNAs0mq-378" value="&lt;span style=&quot;font-size: 18px;&quot;&gt;Resblock&lt;/span&gt;" style="rounded=1;whiteSpace=wrap;html=1;fillColor=#f8cecc;strokeColor=#b85450;" vertex="1" parent="1">
          <mxGeometry x="1325.95" y="2782" width="115.11" height="35" as="geometry" />
        </mxCell>
        <mxCell id="R5nIYqu6_4dfiVNAs0mq-402" style="edgeStyle=none;curved=1;rounded=0;orthogonalLoop=1;jettySize=auto;html=1;exitX=0.5;exitY=0;exitDx=0;exitDy=0;fontSize=12;startSize=8;endSize=8;" edge="1" parent="1" source="R5nIYqu6_4dfiVNAs0mq-395">
          <mxGeometry relative="1" as="geometry">
            <mxPoint x="1383" y="2173.996676127116" as="targetPoint" />
          </mxGeometry>
        </mxCell>
        <mxCell id="R5nIYqu6_4dfiVNAs0mq-395" value="&lt;font style=&quot;font-size: 18px;&quot;&gt;Con_out&lt;/font&gt;" style="rounded=1;whiteSpace=wrap;html=1;" vertex="1" parent="1">
          <mxGeometry x="1326" y="2255.25" width="115.11" height="35" as="geometry" />
        </mxCell>
        <mxCell id="R5nIYqu6_4dfiVNAs0mq-401" style="edgeStyle=none;curved=1;rounded=0;orthogonalLoop=1;jettySize=auto;html=1;exitX=0.5;exitY=0;exitDx=0;exitDy=0;entryX=0.5;entryY=1;entryDx=0;entryDy=0;fontSize=12;startSize=8;endSize=8;" edge="1" parent="1" source="R5nIYqu6_4dfiVNAs0mq-396" target="R5nIYqu6_4dfiVNAs0mq-395">
          <mxGeometry relative="1" as="geometry" />
        </mxCell>
        <mxCell id="R5nIYqu6_4dfiVNAs0mq-396" value="&lt;span style=&quot;font-size: 18px;&quot;&gt;Act&lt;/span&gt;" style="rounded=1;whiteSpace=wrap;html=1;" vertex="1" parent="1">
          <mxGeometry x="1326" y="2326.25" width="115.11" height="35" as="geometry" />
        </mxCell>
        <mxCell id="R5nIYqu6_4dfiVNAs0mq-400" style="edgeStyle=none;curved=1;rounded=0;orthogonalLoop=1;jettySize=auto;html=1;exitX=0.5;exitY=0;exitDx=0;exitDy=0;entryX=0.5;entryY=1;entryDx=0;entryDy=0;fontSize=12;startSize=8;endSize=8;" edge="1" parent="1" source="R5nIYqu6_4dfiVNAs0mq-397" target="R5nIYqu6_4dfiVNAs0mq-396">
          <mxGeometry relative="1" as="geometry" />
        </mxCell>
        <mxCell id="R5nIYqu6_4dfiVNAs0mq-397" value="&lt;span style=&quot;font-size: 18px;&quot;&gt;GN&lt;/span&gt;" style="rounded=1;whiteSpace=wrap;html=1;" vertex="1" parent="1">
          <mxGeometry x="1326" y="2391.25" width="115.11" height="35" as="geometry" />
        </mxCell>
        <mxCell id="R5nIYqu6_4dfiVNAs0mq-404" value="" style="shape=flexArrow;endArrow=classic;html=1;rounded=0;fontSize=12;startSize=8;endSize=8;curved=1;strokeColor=#10739e;fillColor=#b1ddf0;" edge="1" parent="1">
          <mxGeometry width="50" height="50" relative="1" as="geometry">
            <mxPoint x="26" y="4308" as="sourcePoint" />
            <mxPoint x="411" y="4304" as="targetPoint" />
          </mxGeometry>
        </mxCell>
        <mxCell id="R5nIYqu6_4dfiVNAs0mq-405" value="" style="shape=flexArrow;endArrow=classic;html=1;rounded=0;fontSize=12;startSize=8;endSize=8;curved=1;strokeColor=#10739e;fillColor=#b1ddf0;" edge="1" parent="1">
          <mxGeometry width="50" height="50" relative="1" as="geometry">
            <mxPoint x="-179.5" y="3748" as="sourcePoint" />
            <mxPoint x="570.5" y="3744" as="targetPoint" />
          </mxGeometry>
        </mxCell>
        <mxCell id="R5nIYqu6_4dfiVNAs0mq-406" value="" style="shape=flexArrow;endArrow=classic;html=1;rounded=0;fontSize=12;startSize=8;endSize=8;curved=1;strokeColor=#10739e;fillColor=#b1ddf0;" edge="1" parent="1">
          <mxGeometry width="50" height="50" relative="1" as="geometry">
            <mxPoint x="-385" y="3179" as="sourcePoint" />
            <mxPoint x="722" y="3175" as="targetPoint" />
          </mxGeometry>
        </mxCell>
        <mxCell id="R5nIYqu6_4dfiVNAs0mq-408" value="" style="shape=flexArrow;endArrow=classic;html=1;rounded=0;fontSize=12;startSize=8;endSize=8;curved=1;strokeColor=#10739e;fillColor=#b1ddf0;" edge="1" parent="1">
          <mxGeometry width="50" height="50" relative="1" as="geometry">
            <mxPoint x="-544" y="2623" as="sourcePoint" />
            <mxPoint x="878.74" y="2617" as="targetPoint" />
          </mxGeometry>
        </mxCell>
        <mxCell id="R5nIYqu6_4dfiVNAs0mq-409" value="&lt;font color=&quot;#ff0000&quot;&gt;&lt;span style=&quot;font-size: 18px;&quot;&gt;Up&lt;/span&gt;&lt;/font&gt;" style="text;html=1;align=center;verticalAlign=middle;resizable=0;points=[];autosize=1;strokeColor=none;fillColor=none;" vertex="1" parent="1">
          <mxGeometry x="805" y="4138.5" width="41" height="34" as="geometry" />
        </mxCell>
        <mxCell id="R5nIYqu6_4dfiVNAs0mq-410" value="&lt;font color=&quot;#ff0000&quot;&gt;&lt;span style=&quot;font-size: 18px;&quot;&gt;Up&lt;/span&gt;&lt;/font&gt;" style="text;html=1;align=center;verticalAlign=middle;resizable=0;points=[];autosize=1;strokeColor=none;fillColor=none;" vertex="1" parent="1">
          <mxGeometry x="1016" y="3581.5" width="41" height="34" as="geometry" />
        </mxCell>
        <mxCell id="R5nIYqu6_4dfiVNAs0mq-411" value="&lt;font color=&quot;#ff0000&quot;&gt;&lt;span style=&quot;font-size: 18px;&quot;&gt;Up&lt;/span&gt;&lt;/font&gt;" style="text;html=1;align=center;verticalAlign=middle;resizable=0;points=[];autosize=1;strokeColor=none;fillColor=none;" vertex="1" parent="1">
          <mxGeometry x="1221.06" y="3027.5" width="41" height="34" as="geometry" />
        </mxCell>
      </root>
    </mxGraphModel>
  </diagram>
</mxfile>
